<?xml version="1.0" standalone="no"?>
<!DOCTYPE svg PUBLIC "-//W3C//DTD SVG 1.1//EN" "http://www.w3.org/Graphics/SVG/1.1/DTD/svg11.dtd" >
<svg xmlns="http://www.w3.org/2000/svg">
<metadata></metadata>
<defs>
<font id="LucidaConsoleRegular" horiz-adv-x="1234" >
<font-face units-per-em="2048" ascent="1638" descent="-410" />
<missing-glyph horiz-adv-x="500" />
<glyph horiz-adv-x="2048" />
<glyph horiz-adv-x="2048" />
<glyph unicode=" " />
<glyph unicode="!" d="M493 0v222h247v-222h-247zM518 1184v296h197v-296l-25 -765h-148z" />
<glyph unicode="&#x22;" d="M247 1579h247l-50 -543h-148zM740 1579h247l-49 -543h-148z" />
<glyph unicode="#" d="M52 450l29 148h238l72 293h-251l29 148h259l110 441h152l-109 -441h232l109 441h153l-110 -441h228l-29 -148h-238l-72 -293h251l-29 -148h-259l-109 -450h-153l109 450h-232l-109 -450h-153l112 450h-230zM471 598h230l73 293h-230z" />
<glyph unicode="$" d="M216 79v169q213 -103 367 -103v537l-73 48q-265 178 -265 385q0 149 97 250.5t253 114.5v124h123v-124q148 -9 303 -65v-162q-145 72 -303 89v-529l67 -40q274 -161 274 -381q0 -157 -96 -263.5t-257 -128.5v-123h-123v123q-162 0 -367 79zM427 1121q0 -108 126 -200 l42 -30v440q-74 -9 -121 -68t-47 -142zM706 148q173 38 173 222q0 119 -128 207l-45 32v-461z" />
<glyph unicode="%" d="M0 -37l1083 1554h151l-1084 -1554h-150zM1 1141.5q0 148.5 85 243.5t217.5 95t217.5 -95t85 -243.5t-85 -244t-217.5 -95.5t-217.5 95.5t-85 244zM149 1141.5q0 -107.5 42.5 -174t111.5 -66.5t112 66.5t43 174t-43 174t-112 66.5t-111.5 -66.5t-42.5 -174zM629 339.5 q0 148.5 85 244t217.5 95.5t217.5 -95.5t85 -244t-85 -244t-217.5 -95.5t-217.5 95.5t-85 244zM777 339.5q0 -107.5 42.5 -174t111.5 -66.5t112 66.5t43 174t-43 174t-112 66.5t-111.5 -66.5t-42.5 -174z" />
<glyph unicode="&#x26;" d="M24 430q0 158 82 263.5t269 185.5q-89 195 -89 326.5t90.5 221.5t232 90t228.5 -79.5t87 -206.5q0 -223 -313 -401q115 -224 334 -490q93 139 93 372l-2 76h198q-21 -370 -198 -566q94 -112 198 -222h-272l-74 89q-163 -126 -377 -126t-350.5 132.5t-136.5 334.5z M229 471q0 -150 91 -255t219 -105t262 92q-236 287 -367 553q-205 -101 -205 -285zM482 1199q0 -79 70 -238q190 90 190 256q0 67 -35.5 109.5t-91 42.5t-94.5 -45.5t-39 -124.5z" />
<glyph unicode="'" d="M469 1579h296l-74 -617h-148z" />
<glyph unicode="(" d="M345 641.5q0 376.5 207.5 639t532.5 298.5v-136q-261 -53 -402 -260.5t-141 -540.5t141 -541t402 -261v-136q-325 36 -532.5 298.5t-207.5 639z" />
<glyph unicode=")" d="M148 -160q261 53 402 260.5t141 540.5t-140.5 541t-402.5 261v136q326 -36 533 -298.5t207 -639t-207.5 -639t-532.5 -298.5v136z" />
<glyph unicode="*" d="M164 1080l61 188l305 -139q-38 -50 -38 -104v-13zM276 735l226 248q37 -55 99 -73l-165 -291zM518 1480h198l-37 -333q-35 13 -62 13t-62 -13zM632 910q63 18 100 73l226 -248l-160 -116zM703 1129l306 139l61 -188l-328 -68v14q0 53 -39 103z" />
<glyph unicode="+" d="M86 456v149h456v456h149v-456h456v-149h-456v-456h-149v456h-456z" />
<glyph unicode="," d="M469 0v296h296v-179q0 -422 -296 -438v99q102 14 119 177l4 45h-123z" />
<glyph unicode="-" d="M210 543v148h814v-148h-814z" />
<glyph unicode="." d="M469 0v296h296v-296h-296z" />
<glyph unicode="/" d="M75 -296l920 1875h165l-920 -1875h-165z" />
<glyph unicode="0" d="M111 740.5q0 355.5 137.5 566t368.5 210.5t368.5 -210.5t137.5 -566t-137.5 -566.5t-368.5 -211t-368.5 211t-137.5 566.5zM321 740q0 -629 296 -629t296 629t-296 629t-296 -629z" />
<glyph unicode="1" d="M185 0v148h395v1151l-395 -89v122l592 185v-1369h395v-148h-987z" />
<glyph unicode="2" d="M168 0v173q122 236 364 476l89 89q184 183 184 369q0 119 -70.5 190.5t-201 71.5t-328.5 -104v174q184 78 373.5 78t313 -110.5t123.5 -291.5q0 -117 -57 -220t-193 -230l-84 -79q-232 -216 -279 -413h605v-173h-839z" />
<glyph unicode="3" d="M234 7v174q201 -70 322 -70t203 82.5t82 224.5t-97.5 223t-277.5 81h-96v142h57q131 0 191.5 16.5t110.5 65.5q79 78 79 191t-63 172.5t-192.5 59.5t-297.5 -81v173q163 57 345.5 57t294 -89.5t111.5 -248.5q0 -248 -267 -372q312 -107 312 -398q0 -205 -138.5 -326 t-373.5 -121q-146 0 -305 44z" />
<glyph unicode="4" d="M111 395v166l617 919h185v-937h197v-148h-197v-395h-185v395h-617zM277 543h451v672z" />
<glyph unicode="5" d="M270 8v169q169 -66 281 -66t190.5 94.5t78.5 241.5q0 331 -434 331q-37 0 -88 -4v706h694v-172h-528v-384q262 0 414 -132t152 -346.5t-138 -348.5t-346 -134q-117 0 -276 45z" />
<glyph unicode="6" d="M162 712.5q0 365.5 158 585.5t421 220q122 0 301 -56v-169q-177 77 -282 77q-187 0 -289 -160t-102 -453q131 190 338 190q174 0 295 -134.5t121 -345t-131 -357.5t-334 -147q-241 0 -368.5 192t-127.5 557.5zM394 472.5q0 -158.5 78 -260t199 -101.5t190.5 93 t69.5 247.5t-74.5 254t-196 99.5t-194 -87t-72.5 -245.5z" />
<glyph unicode="7" d="M201 1295v185h892v-166l-48 -80q-477 -804 -529 -1234h-235q18 160 71 286t245 465l309 544h-705z" />
<glyph unicode="8" d="M160 372q0 266 277 434q-202 148 -202 328.5t115.5 281.5t303 101t288 -83.5t100.5 -235.5q0 -226 -259 -383q179 -108 249 -201.5t70 -223.5q0 -186 -136 -306.5t-343.5 -120.5t-335 113.5t-127.5 295.5zM354 398q0 -128 78.5 -207.5t198.5 -79.5t196.5 68t76.5 169 q0 163 -230 300l-132 78q-188 -154 -188 -328zM419 1174q0 -140 199 -260l54 -32q193 122 193 284q0 92 -61.5 147.5t-162.5 55.5t-161.5 -53t-60.5 -142z" />
<glyph unicode="9" d="M149 1013q0 210 131 357t334 147q241 0 368 -191.5t127 -557t-157.5 -585.5t-418.5 -220q-117 0 -303 52v169q186 -73 284 -73q185 0 287 160.5t102 452.5q-131 -190 -339 -190q-174 0 -294.5 134.5t-120.5 344.5zM340 1028.5q0 -154.5 75 -253.5t196 -99t194 87t73 245 t-78.5 259.5t-199 101.5t-190.5 -93t-70 -247.5z" />
<glyph unicode=":" d="M469 0v296h296v-296h-296zM469 790v296h296v-296h-296z" />
<glyph unicode=";" d="M469 0v296h296v-179q0 -422 -296 -438v99q111 13 123 222h-123zM469 790v296h296v-296h-296z" />
<glyph unicode="&#x3c;" d="M86 530l1061 531v-166l-730 -365l730 -364v-166z" />
<glyph unicode="=" d="M86 284v148h1061v-148h-1061zM86 654v148h1061v-148h-1061z" />
<glyph unicode="&#x3e;" d="M86 0v166l730 364l-730 365v166l1061 -531z" />
<glyph unicode="?" d="M164 1170v289q203 58 431 58t359.5 -84t131.5 -248t-192 -320l-99 -80q-86 -70 -120 -135t-34 -160v-71h-198v28q0 131 51 227.5t171 196.5l70 58q144 119 144 234q0 207 -337 207q-112 0 -230 -30v-170h-148zM419 0v222h246v-222h-246z" />
<glyph unicode="@" d="M74 712.5q0 342.5 179.5 574t460.5 231.5q397 0 397 -443v-656h123v-123h-271v332q-115 -344 -287 -344q-97 0 -158 104t-61 268q0 226 109.5 383t268.5 157q55 0 128 -32q-38 230 -259 230q-203 0 -342.5 -203.5t-139.5 -484t124 -450.5t317 -170q130 0 300 83v-136 q-183 -70 -318 -70q-253 0 -412 203.5t-159 546zM605 678q0 -253 91 -248q57 3 133 130t134 316v173q-63 41 -117 41q-111 0 -176 -111t-65 -301z" />
<glyph unicode="A" d="M12 0l506 1283h197l506 -1283h-209l-121 321h-586l-123 -321h-170zM364 469h468l-235 613z" />
<glyph unicode="B" d="M185 0v1283h414q450 0 450 -298q0 -114 -77.5 -196.5t-216.5 -117.5q357 -73 357 -339q0 -152 -105 -238q-68 -57 -155 -75.5t-280 -18.5h-387zM382 148h178q195 0 268.5 40t73.5 155.5t-120.5 188.5t-327.5 73h-72v-457zM382 728h69q398 0 398 222q0 109 -77 147 t-298 38h-92v-407z" />
<glyph unicode="C" d="M102 637q0 301 186 489t486 188q170 0 364 -58v-181q-198 91 -383.5 91t-314 -146t-128.5 -373t145 -372t373 -145q138 0 325 72v-162q-198 -71 -373 -71q-306 0 -493 183.5t-187 484.5z" />
<glyph unicode="D" d="M130 0v1283h387q640 0 640 -616q0 -285 -139 -461q-87 -111 -214.5 -158.5t-339.5 -47.5h-334zM327 148h99q282 0 401.5 112t119.5 378t-108 381.5t-360 115.5h-152v-987z" />
<glyph unicode="E" d="M216 0v1283h867v-148h-670v-389h568v-148h-568v-450h716v-148h-913z" />
<glyph unicode="F" d="M247 0v1283h913v-148h-716v-442h611v-148h-611v-545h-197z" />
<glyph unicode="G" d="M77 638.5q0 299.5 186 487.5t486 188q170 0 364 -58v-181q-198 91 -383.5 91t-314 -146t-128.5 -372.5t145 -372t370 -145.5q51 0 130 12v339h-241v148h438v-596q-201 -64 -381 -64q-298 0 -484.5 185t-186.5 484.5z" />
<glyph unicode="H" d="M148 0v1283h197v-561h543v561h198v-1283h-198v574h-543v-574h-197z" />
<glyph unicode="I" d="M173 0v148h345v987h-345v148h888v-148h-345v-987h345v-148h-888z" />
<glyph unicode="J" d="M197 17v167l66 -22q137 -45 217 -45q141 0 197.5 73t56.5 258v687h-444v148h641v-730q0 -195 -23 -290t-88 -167q-114 -127 -326 -127q-115 0 -297 48z" />
<glyph unicode="K" d="M170 0v1283h197v-629l537 629h199l-518 -605l617 -678h-236l-599 654v-654h-197z" />
<glyph unicode="L" d="M222 0v1283h197v-1135h691v-148h-888z" />
<glyph unicode="M" d="M94 0v1283h237l282 -790h2l277 790h247v-1283h-161v1101h-2l-289 -830h-166l-288 807h-2v-1078h-137z" />
<glyph unicode="N" d="M148 0v1287h186l589 -933h2v929h161v-1283h-182l-593 940h-3v-940h-160z" />
<glyph unicode="O" d="M62 641.5q0 307.5 150.5 490t404.5 182.5t404.5 -182.5t150.5 -490t-150.5 -490t-404.5 -182.5t-404.5 182.5t-150.5 490zM272 641.5q0 -251.5 89.5 -388t255.5 -136.5t256 136.5t90 388t-90 388t-256 136.5t-255.5 -136.5t-89.5 -388z" />
<glyph unicode="P" d="M228 0v1283h417q223 0 318 -40q194 -84 194 -324q0 -202 -156.5 -317t-431.5 -115h-144v-487h-197zM425 635h123q400 0 400 280q0 118 -75.5 169t-251.5 51h-196v-500z" />
<glyph unicode="Q" d="M62 645q0 304 150.5 486.5t404.5 182.5t404.5 -182.5t150.5 -490.5q0 -222 -81.5 -382.5t-235.5 -240.5q168 -118 379 -167l-104 -172q-257 101 -453 293q-50 -3 -77 -3q-240 0 -389 186t-149 490zM272 641.5q0 -251.5 89.5 -388t255.5 -136.5t256 136.5t90 388t-90 388 t-256 136.5t-255.5 -136.5t-89.5 -388z" />
<glyph unicode="R" d="M184 0v1283h359q224 0 311 -37q186 -77 186 -272q0 -134 -67 -223.5t-224 -166.5l454 -584h-239l-405 534h-178v-534h-197zM381 683h104q159 0 252 70t93 185t-70 156t-258 41h-121v-452z" />
<glyph unicode="S" d="M164 40v195q262 -118 421.5 -118t246.5 57.5t87 143t-51.5 128.5t-212.5 102l-132 48q-197 73 -273.5 150t-76.5 205q0 173 117.5 268t310.5 95t409 -61v-171q-217 84 -386 84q-267 0 -267 -180q0 -73 50 -117.5t185 -91.5l246 -85q279 -98 279 -332 q0 -178 -142.5 -284.5t-381.5 -106.5q-166 0 -429 71z" />
<glyph unicode="T" d="M25 1135v148h1184v-148h-493v-1135h-198v1135h-493z" />
<glyph unicode="U" d="M153 507v776h197v-779q0 -204 64.5 -295.5t212.5 -91.5t215 91.5t67 300.5v774h172v-745q0 -241 -57 -346q-121 -223 -399 -223q-241 0 -356.5 132t-115.5 406z" />
<glyph unicode="V" d="M14 1283h208l410 -1020l419 1020h168l-509 -1283h-198z" />
<glyph unicode="W" d="M16 1283h168l156 -1066h3l185 795h190l182 -783h2l165 1054h150l-211 -1283h-214l-177 753h-2l-178 -753h-228z" />
<glyph unicode="X" d="M11 0l503 653l-460 630h233l347 -475l367 475h192l-466 -602l492 -681h-234l-379 522l-403 -522h-192z" />
<glyph unicode="Y" d="M32 1283h227l373 -592l408 592h187l-511 -758v-525h-197v525z" />
<glyph unicode="Z" d="M99 0v148l805 987h-756v148h979v-148l-804 -987h812v-148h-1036z" />
<glyph unicode="[" d="M444 -296v1875h617v-148h-444v-1579h444v-148h-617z" />
<glyph unicode="\" d="M74 1579h165l920 -1875h-165z" />
<glyph unicode="]" d="M173 -148h444v1579h-444v148h617v-1875h-617v148z" />
<glyph unicode="^" d="M86 296l530 1184l531 -1184h-166l-365 815l-364 -815h-166z" />
<glyph unicode="_" d="M0 0h1234v-148h-1234v148z" />
<glyph unicode="`" d="M370 1616h271l222 -222h-160z" />
<glyph unicode="a" d="M136 281q0 169 150 272t396 103h122v93q0 115 -51 164t-169 49q-171 0 -354 -96v169q210 75 405.5 75t281 -82t85.5 -283v-455q0 -98 21 -133.5t79 -35.5q19 0 62 10l18 -118q-99 -32 -150 -32q-146 0 -197 150q-179 -150 -342.5 -150t-260 85t-96.5 215zM340 314 q0 -79 52 -127t138 -48q129 0 274 120v274h-59q-405 0 -405 -219z" />
<glyph unicode="b" d="M173 -12v1591h197v-697q143 228 355 228q185 0 291.5 -142.5t106.5 -400.5t-126 -425t-330 -167q-175 0 -297 148l-49 -135h-148zM370 271q137 -148 268.5 -148t203 114.5t71.5 320.5q0 384 -229 384q-167 0 -314 -208v-463z" />
<glyph unicode="c" d="M163 540.5q0 269.5 151.5 419.5t421.5 150q172 0 347 -52v-165q-193 69 -329 69q-178 0 -279.5 -112t-101.5 -308t108.5 -307.5t299.5 -111.5q143 0 322 67v-155q-175 -60 -349 -60q-284 0 -437.5 148t-153.5 417.5z" />
<glyph unicode="d" d="M127 519q0 258 126 424.5t330 166.5q175 0 297 -148v617h197v-1579h-197v204q-144 -229 -356 -229q-184 0 -290.5 143t-106.5 401zM337 527q0 -383 229 -383q167 0 314 208v462q-138 148 -269 148t-202.5 -114t-71.5 -321z" />
<glyph unicode="e" d="M141 523.5q0 260.5 144.5 423.5t368.5 163t330.5 -135t106.5 -420v-63h-740q22 -369 398 -369q159 0 349 76v-156q-205 -68 -376 -68q-280 0 -430.5 144t-150.5 404.5zM357 640h524v28q0 294 -245 294q-118 0 -191.5 -85t-87.5 -237z" />
<glyph unicode="f" d="M148 913v148h296v115q0 228 106 328t348 100q160 0 303 -43v-156q-146 51 -292.5 51t-207 -57.5t-60.5 -201.5v-136h519v-148h-519v-913h-197v913h-296z" />
<glyph unicode="g" d="M123 533.5q0 250.5 127 414t330 163.5q159 0 313 -149v124h185v-869q0 -211 -28 -317.5t-105 -188.5q-123 -131 -385 -131q-154 0 -348 57l21 166q177 -75 329 -75q316 0 316 301l9 196q-124 -225 -359 -225q-186 0 -295.5 141.5t-109.5 392zM333 551.5q0 -186.5 63 -283 t176 -96.5q175 0 309 213v427q-133 150 -268.5 150t-207.5 -112t-72 -298.5z" />
<glyph unicode="h" d="M182 0v1579h197v-697q136 228 370 228q309 0 309 -367v-743h-197v689q0 127 -39.5 180.5t-132.5 53.5q-148 0 -310 -213v-710h-197z" />
<glyph unicode="i" d="M173 938v148h592v-1086h-197v938h-395zM543 1332v247h247v-247h-247z" />
<glyph unicode="j" d="M148 -202q154 -70 292.5 -70t185 63.5t46.5 235.5v911h-444v148h641v-1019q0 -253 -99.5 -369.5t-316.5 -116.5q-142 0 -305 52v165zM647 1332v247h247v-247h-247z" />
<glyph unicode="k" d="M213 0v1579h197v-1011l456 518h213l-429 -489l538 -597h-266l-512 568v-568h-197z" />
<glyph unicode="l" d="M173 1431v148h617v-1579h-198v1431h-419z" />
<glyph unicode="m" d="M93 0v1086h173v-204q127 228 242 228q147 0 189 -228h7q104 228 244 228q102 0 148 -74.5t46 -240.5v-795h-173v787q0 89 -13 121t-49 32q-94 0 -203 -239v-701h-173v751q0 112 -13 149.5t-53.5 37.5t-98 -68.5t-100.5 -170.5v-699h-173z" />
<glyph unicode="n" d="M182 0v1086h197v-204q136 228 370 228q309 0 309 -367v-743h-197v689q0 127 -39.5 180.5t-132.5 53.5q-148 0 -310 -213v-710h-197z" />
<glyph unicode="o" d="M105 542.5q0 264.5 137 416t375.5 151.5t375 -151.5t136.5 -416t-136.5 -416t-375.5 -151.5t-375.5 151.5t-136.5 416zM315 542.5q0 -197.5 80 -308.5t222 -111t222 111t80 308.5t-80 308.5t-222 111t-222 -111t-80 -308.5z" />
<glyph unicode="p" d="M179 -395v1481h197v-204q143 228 355 228q185 0 291.5 -142.5t106.5 -400.5t-126 -425t-330 -167q-175 0 -297 148v-518h-197zM376 271q137 -148 268.5 -148t203 114.5t71.5 320.5q0 384 -229 384q-167 0 -314 -208v-463z" />
<glyph unicode="q" d="M111 519q0 258 126 424.5t330 166.5q175 0 297 -148h6l31 124h160v-1481h-197v599q-144 -229 -356 -229q-184 0 -290.5 143t-106.5 401zM321 527q0 -383 229 -383q167 0 314 208v462q-138 148 -269 148t-202.5 -114t-71.5 -321z" />
<glyph unicode="r" d="M308 0v1086h197v-204q150 228 403 228q89 0 202 -25v-308h-148v151q-44 10 -80 10q-113 0 -198.5 -52.5t-178.5 -178.5v-707h-197z" />
<glyph unicode="s" d="M187 44v178q229 -99 372.5 -99t222 48.5t78.5 122.5q0 95 -187 155l-211 69q-247 80 -247 282q0 148 111.5 229t290 81t380.5 -47v-160q-195 59 -329.5 59t-199 -39t-64.5 -105q0 -81 147 -132l249 -87q136 -48 195.5 -114.5t59.5 -172.5q0 -154 -127 -245.5 t-327.5 -91.5t-413.5 69z" />
<glyph unicode="t" d="M130 913v148h271v234h198v-234h481v-148h-481v-556q0 -93 11.5 -128t49.5 -61q68 -45 194.5 -45t247.5 28v-150q-148 -26 -286 -26q-241 0 -328 86.5t-87 327.5v524h-271z" />
<glyph unicode="u" d="M176 343v743h197v-689q0 -128 39 -181.5t133 -53.5q148 0 310 214v710h197v-1086h-197v204q-136 -229 -371 -229q-308 0 -308 368z" />
<glyph unicode="v" d="M62 1086h202l361 -870l372 870h175l-462 -1086h-198z" />
<glyph unicode="w" d="M12 1086h182l144 -850h2l193 751h191l183 -780h3l160 879h151l-217 -1086h-194l-191 812h-2l-211 -812h-196z" />
<glyph unicode="x" d="M93 0l404 549l-402 537h247l300 -401l275 401h195l-369 -536l411 -550h-246l-311 415l-305 -415h-199z" />
<glyph unicode="y" d="M85 1086h204l355 -813l358 813h177l-547 -1225q-64 -143 -153 -199.5t-253 -56.5h-84v148h80q112 0 163 36t107 155l49 104z" />
<glyph unicode="z" d="M136 0v148l711 790h-686v148h919v-148l-712 -790h730v-148h-962z" />
<glyph unicode="{" d="M234 568v148h91q224 0 224 183q0 39 -7 79l-34 178q-14 75 -14 135q0 288 421 288h109v-148h-79q-149 0 -210 -36.5t-61 -126.5q0 -33 10 -92l23 -139q12 -70 12 -116q0 -215 -198 -279q197 -65 197 -283q0 -45 -11 -113l-23 -138q-10 -60 -10 -93q0 -90 61 -126.5 t210 -36.5h79v-148h-109q-204 0 -312.5 74t-108.5 214q0 60 14 135l34 178q7 40 7 79q0 184 -224 184h-91z" />
<glyph unicode="|" d="M543 -296v1875h148v-1875h-148z" />
<glyph unicode="}" d="M210 -148h78q150 0 211 36.5t61 126.5q0 33 -10 93l-23 138q-12 70 -12 116q0 215 197 280q-197 64 -197 280q0 45 12 115l23 139q10 59 10 92q0 90 -61.5 126.5t-210.5 36.5h-78v148h108q205 0 313 -74t108 -214q0 -60 -14 -135l-33 -178q-8 -40 -8 -79q0 -183 225 -183 h91v-148h-91q-225 0 -225 -184q0 -39 8 -79l33 -178q14 -74 14 -135q0 -288 -421 -288h-108v148z" />
<glyph unicode="~" d="M86 382q0 147 75.5 238.5t183 91.5t223.5 -65l147 -82q112 -64 173 -64q115 0 123 178h136q0 -147 -75.5 -238.5t-183 -91.5t-223.5 65l-147 82q-112 64 -173 64q-115 0 -123 -178h-136z" />
<glyph unicode="&#xa0;" />
<glyph unicode="&#xa1;" d="M493 864v222h247v-222h-247zM518 -99l24 765h148l25 -765v-296h-197v296z" />
<glyph unicode="&#xa2;" d="M197 739.5q0 237.5 112.5 383t324.5 184.5v173h123v-173q110 -10 257 -46v-168q-141 52 -257 68v-837q141 14 259 70v-152q-111 -44 -259 -64v-178h-123v182q-209 28 -323 174t-114 383.5zM407 743q0 -322 227 -402v811q-227 -51 -227 -409z" />
<glyph unicode="&#xa3;" d="M251 0v173q199 76 199 309v234h-173v148h173v215q0 215 99 326.5t289 111.5q95 0 214 -29v-168q-134 49 -220 49q-185 0 -185 -212v-293h198v-148h-198v-142q0 -137 -33 -215.5t-137 -185.5h590v-173h-816z" />
<glyph unicode="&#xa4;" d="M111 326l187 185q-66 109 -66 231t66 231l-187 186l89 89l185 -187q122 78 232.5 78t231.5 -78l186 187l89 -89l-188 -186q66 -109 66 -231t-66 -231l188 -185l-89 -90l-186 187q-121 -78 -231.5 -78t-232.5 78l-185 -187zM380 742.5q0 -102.5 70 -176t167.5 -73.5 t167.5 73.5t70 176t-70 175.5t-167.5 73t-167.5 -73t-70 -175.5z" />
<glyph unicode="&#xa5;" d="M50 1480h236l364 -580l389 580h170l-488 -740h288v-135h-296v-204h296v-136h-296v-265h-197v265h-296v136h296v204h-296v135h293z" />
<glyph unicode="&#xa6;" d="M543 -296v740h148v-740h-148zM543 839v740h148v-740h-148z" />
<glyph unicode="&#xa7;" d="M217 -74q232 -111 395 -111q100 0 167.5 51t67.5 123t-52.5 126.5t-180.5 118.5l-117 59q-265 134 -265 323q0 73 28 132.5t114 169.5q-142 108 -142 255t125.5 245.5t322.5 98.5q143 0 293 -41v-167q-159 60 -289 60t-202.5 -48t-72.5 -114t33.5 -102.5t126.5 -82.5 l130 -65q308 -153 308 -351q0 -146 -147 -307q167 -122 167 -276.5t-122.5 -252t-296 -97.5t-391.5 72v181zM409 682q0 -77 42 -127.5t148 -105.5l128 -66q12 -6 40 -22q72 112 72 184.5t-46 125t-161 111.5l-121 60q-10 5 -33 17q-69 -100 -69 -177z" />
<glyph unicode="&#xa8;" d="M284 1443v173h173v-173h-173zM777 1443v173h173v-173h-173z" />
<glyph unicode="&#xa9;" d="M62 740q0 777 555 777q273 0 414 -193.5t141 -581.5q0 -779 -555 -779t-555 777zM185 740q0 -666 432 -666t432 666t-432 666t-432 -666zM278 746q0 204 103 321t284 117q104 0 224 -40v-144q-108 64 -223.5 64t-177 -82t-61.5 -230.5t70 -234t192 -85.5q83 0 201 58 v-130q-123 -60 -235 -60q-171 0 -274 121t-103 325z" />
<glyph unicode="&#xaa;" d="M237 942q0 133 112 203.5t323 70.5h70v29q0 149 -170 149q-136 0 -296 -89v146q150 66 322 66t244.5 -59.5t72.5 -200.5v-288q0 -114 72 -114q21 0 47 11v-115q-65 -35 -131 -35q-108 0 -147 109q-154 -109 -267.5 -109t-182.5 64.5t-69 161.5zM407 952q0 -45 32.5 -74.5 t81.5 -29.5q116 0 221 90v155h-51q-284 0 -284 -141z" />
<glyph unicode="&#xab;" d="M117 537l443 456l96 -82l-315 -374l313 -371l-91 -80zM555 537l443 456l96 -82l-315 -374l313 -371l-91 -80z" />
<glyph unicode="&#xac;" d="M86 642v148h1061v-494h-148v346h-913z" />
<glyph unicode="&#xad;" d="M210 543v148h814v-148h-814z" />
<glyph unicode="&#xae;" d="M173 1073.5q0 184.5 130 314t314 129.5t314 -129.5t130 -314t-130 -314.5t-314 -130t-314 130t-130 314.5zM272 1073q0 -142 101.5 -243.5t243.5 -101.5t244 101.5t102 243.5t-102 244t-244 102t-243.5 -102t-101.5 -244zM444 814v531h147q199 0 199 -143 q0 -100 -101 -153l124 -235h-111l-114 215h-45v-215h-99zM543 1104h34q110 0 110 86q0 78 -99 78h-45v-164z" />
<glyph unicode="&#xaf;" d="M0 1468v148h1234v-148h-1234z" />
<glyph unicode="&#xb0;" d="M392 1296q0 93 64.5 157t157.5 64t157.5 -64.5t64.5 -157t-64.5 -157.5t-157.5 -65t-157.5 65t-64.5 158zM491 1295.5q0 -49.5 37 -86.5t86.5 -37t86 37t36.5 86.5t-36.5 86.5t-86 37t-86.5 -37t-37 -86.5z" />
<glyph unicode="&#xb1;" d="M86 0v148h1061v-148h-1061zM86 605v148h456v308h149v-308h456v-148h-456v-309h-149v309h-456z" />
<glyph unicode="&#xb2;" d="M302 740v141q66 97 220 190l74 44q114 69 143 98t29 75q0 106 -181 106q-138 0 -285 -71v137q155 57 316.5 57t247 -57.5t85.5 -152t-48 -146t-196 -129.5l-78 -41q-106 -56 -145 -115h484v-136h-666z" />
<glyph unicode="&#xb3;" d="M313 758v139q191 -58 275.5 -58t131.5 29t47 77q0 124 -284 124h-59v123h61q282 0 282 118q0 84 -132.5 84t-321.5 -72v137q162 58 336 58q297 0 297 -184q0 -129 -195 -197q202 -57 202 -197q0 -105 -90.5 -164t-231.5 -59t-318 42z" />
<glyph unicode="&#xb4;" d="M370 1394l222 222h271l-333 -222h-160z" />
<glyph unicode="&#xb5;" d="M182 -419v1505h197v-553q0 -132 18.5 -193t80.5 -117.5t154 -56.5q126 0 235 214v706h197v-751q0 -217 60 -335h-216q-21 58 -29.5 120.5t-11.5 82.5q-51 -126 -106 -177t-134 -51t-132.5 31.5t-115.5 112.5v-538h-197z" />
<glyph unicode="&#xb6;" d="M125 1154q0 159 84 242.5t323 83.5h469v-1776h-123v1653h-247v-1653h-124v1036q-382 86 -382 414z" />
<glyph unicode="&#xb7;" d="M493 419v247h247v-247h-247z" />
<glyph unicode="&#xb8;" d="M495 -330q46 -15 105 -15q103 0 103 74q0 96 -187 96l95 175h97l-60 -109q77 0 135.5 -47.5t58.5 -113.5t-58.5 -114t-136.5 -48t-152 21v81z" />
<glyph unicode="&#xb9;" d="M343 1357v123l358 37v-777h-173v617h-185z" />
<glyph unicode="&#xba;" d="M222 1115.5q0 191.5 101.5 296.5t291.5 105t293 -103t103 -296.5t-102.5 -297.5t-292 -104t-292 104t-102.5 295.5zM407 1116.5q0 -277.5 209.5 -277.5t209.5 277.5t-209.5 277.5t-209.5 -277.5z" />
<glyph unicode="&#xbb;" d="M140 168l315 375l-313 371l91 79l446 -450l-443 -457zM578 168l315 375l-313 371l91 79l446 -450l-443 -457z" />
<glyph unicode="&#xbc;" d="M0 1357v123l308 37v-777h-172v617h-136zM40 -37l812 1554h167l-812 -1554h-167zM548 197v141l359 427h191v-457h123v-111h-123v-197h-173v197h-377zM649 308h276v330z" />
<glyph unicode="&#xbd;" d="M0 1357v123l308 37v-777h-172v617h-136zM7 -37l812 1554h167l-812 -1554h-167zM664 0v139q76 137 226 254l43 34q77 61 77 123q0 104 -133 104q-98 0 -213 -56v135q129 45 246.5 45t199 -60t81.5 -158q0 -125 -163 -233l-95 -63q-73 -51 -105 -128h381v-136h-545z" />
<glyph unicode="&#xbe;" d="M42 -37l1017 1554h175l-1017 -1554h-175zM42 749v131q122 -38 195 -38t113.5 27.5t40.5 72.5q0 131 -269 131v122h30q241 0 241 119q0 87 -133 87q-94 0 -218 -42v128q122 30 248 30t204 -49t78 -135q0 -141 -231 -200q234 -41 234 -195q0 -105 -88.5 -161.5 t-253.5 -56.5q-94 0 -191 29zM561 197v141l358 427h192v-457h123v-111h-123v-197h-173v197h-377zM662 308h276v330z" />
<glyph unicode="&#xbf;" d="M148 -87q0 164 191 320l100 80q86 70 120 135t34 160v58h197v-15q0 -131 -50 -227t-171 -197l-70 -58q-144 -120 -144 -234q0 -206 337 -206q112 0 230 29v170h148v-289q-203 -58 -431 -58t-359.5 84t-131.5 248zM568 864v222h247v-222h-247z" />
<glyph unicode="&#xc0;" d="M12 0l506 1283h197l506 -1283h-209l-121 321h-586l-123 -321h-170zM264 1616h271l222 -222h-160zM364 469h468l-235 613z" />
<glyph unicode="&#xc1;" d="M12 0l506 1283h197l506 -1283h-209l-121 321h-586l-123 -321h-170zM364 469h468l-235 613zM437 1394l222 222h271l-333 -222h-160z" />
<glyph unicode="&#xc2;" d="M12 0l506 1283h197l506 -1283h-209l-121 321h-586l-123 -321h-170zM259 1394l222 222h271l222 -222h-160l-198 132l-197 -132h-160zM364 469h468l-235 613z" />
<glyph unicode="&#xc3;" d="M12 0l506 1283h197l506 -1283h-209l-121 321h-586l-123 -321h-170zM281 1394q11 222 192 222q68 0 133 -35l59 -34q55 -30 84 -30q69 0 75 99h123q-12 -222 -191 -222q-69 0 -133 36l-60 33q-54 30 -90 30q-63 0 -68 -99h-124zM364 469h468l-235 613z" />
<glyph unicode="&#xc4;" d="M12 0l506 1283h197l506 -1283h-209l-121 321h-586l-123 -321h-170zM283 1443v173h173v-173h-173zM364 469h468l-235 613zM776 1443v173h173v-173h-173z" />
<glyph unicode="&#xc5;" d="M12 0l506 1283h1q-83 58 -83 143t52.5 137.5t127.5 52.5t128 -52.5t53 -137t-83 -143.5h1l506 -1283h-209l-115 321h-592l-123 -321h-170zM366 469h476l-245 613zM510 1436q0 -44 31 -75.5t75 -31.5t75.5 31.5t31.5 75.5t-31.5 75t-75.5 31t-75 -31t-31 -75z" />
<glyph unicode="&#xc6;" d="M0 0l565 1283h582v-148h-333v-438h266v-148h-266v-401h383v-148h-568v265h-340l-117 -265h-172zM355 413h274v624z" />
<glyph unicode="&#xc7;" d="M102 637q0 301 186 489t486 188q170 0 364 -58v-181q-198 91 -383.5 91t-314 -146t-128.5 -373t145 -372t373 -145q138 0 325 72v-162q-198 -71 -373 -71q-306 0 -493 183.5t-187 484.5zM584 -330q46 -15 105 -15q103 0 103 74q0 96 -187 96l95 175h97l-60 -109 q77 0 135.5 -47.5t58.5 -113.5t-58.5 -114t-136.5 -48t-152 21v81z" />
<glyph unicode="&#xc8;" d="M216 0v1283h867v-148h-670v-389h568v-148h-568v-450h716v-148h-913zM340 1616h271l222 -222h-160z" />
<glyph unicode="&#xc9;" d="M216 0v1283h867v-148h-670v-389h568v-148h-568v-450h716v-148h-913zM512 1394l222 222h271l-333 -222h-160z" />
<glyph unicode="&#xca;" d="M216 0v1283h867v-148h-670v-389h568v-148h-568v-450h716v-148h-913zM318 1394l222 222h271l222 -222h-160l-198 132l-197 -132h-160z" />
<glyph unicode="&#xcb;" d="M216 0v1283h867v-148h-670v-389h568v-148h-568v-450h716v-148h-913zM339 1443v173h173v-173h-173zM832 1443v173h173v-173h-173z" />
<glyph unicode="&#xcc;" d="M173 0v148h345v987h-345v148h888v-148h-345v-987h345v-148h-888zM284 1616h271l222 -222h-160z" />
<glyph unicode="&#xcd;" d="M173 0v148h345v987h-345v148h888v-148h-345v-987h345v-148h-888zM457 1394l222 222h271l-333 -222h-160z" />
<glyph unicode="&#xce;" d="M173 0v148h345v987h-345v148h888v-148h-345v-987h345v-148h-888zM259 1394l222 222h271l222 -222h-160l-198 132l-197 -132h-160z" />
<glyph unicode="&#xcf;" d="M173 0v148h345v987h-345v148h888v-148h-345v-987h345v-148h-888zM284 1443v173h173v-173h-173zM777 1443v173h173v-173h-173z" />
<glyph unicode="&#xd0;" d="M6 598v148h123v537h387q640 0 640 -616q0 -285 -139 -461q-87 -111 -214.5 -158.5t-339.5 -47.5h-334v598h-123zM326 148h99q282 0 401.5 112t119.5 378t-108 381.5t-360 115.5h-152v-389h247v-148h-247v-450z" />
<glyph unicode="&#xd1;" d="M148 0v1287h186l589 -933h2v929h161v-1283h-182l-593 940h-3v-940h-160zM295 1394q11 222 192 222q68 0 133 -35l59 -34q55 -30 84 -30q69 0 75 99h123q-12 -222 -191 -222q-69 0 -133 36l-60 33q-54 30 -90 30q-63 0 -68 -99h-124z" />
<glyph unicode="&#xd2;" d="M62 641.5q0 307.5 150.5 490t404.5 182.5t404.5 -182.5t150.5 -490t-150.5 -490t-404.5 -182.5t-404.5 182.5t-150.5 490zM272 641.5q0 -251.5 89.5 -388t255.5 -136.5t256 136.5t90 388t-90 388t-256 136.5t-255.5 -136.5t-89.5 -388zM284 1616h271l222 -222h-160z" />
<glyph unicode="&#xd3;" d="M62 641.5q0 307.5 150.5 490t404.5 182.5t404.5 -182.5t150.5 -490t-150.5 -490t-404.5 -182.5t-404.5 182.5t-150.5 490zM272 641.5q0 -251.5 89.5 -388t255.5 -136.5t256 136.5t90 388t-90 388t-256 136.5t-255.5 -136.5t-89.5 -388zM457 1394l222 222h271l-333 -222 h-160z" />
<glyph unicode="&#xd4;" d="M62 641.5q0 307.5 150.5 490t404.5 182.5t404.5 -182.5t150.5 -490t-150.5 -490t-404.5 -182.5t-404.5 182.5t-150.5 490zM259 1394l222 222h271l222 -222h-160l-198 132l-197 -132h-160zM272 641.5q0 -251.5 89.5 -388t255.5 -136.5t256 136.5t90 388t-90 388 t-256 136.5t-255.5 -136.5t-89.5 -388z" />
<glyph unicode="&#xd5;" d="M62 641.5q0 307.5 150.5 490t404.5 182.5t404.5 -182.5t150.5 -490t-150.5 -490t-404.5 -182.5t-404.5 182.5t-150.5 490zM272 641.5q0 -251.5 89.5 -388t255.5 -136.5t256 136.5t90 388t-90 388t-256 136.5t-255.5 -136.5t-89.5 -388zM288 1394q11 222 192 222 q68 0 133 -35l59 -34q55 -30 84 -30q69 0 75 99h123q-12 -222 -191 -222q-69 0 -133 36l-60 33q-54 30 -90 30q-63 0 -68 -99h-124z" />
<glyph unicode="&#xd6;" d="M62 641.5q0 307.5 150.5 490t404.5 182.5t404.5 -182.5t150.5 -490t-150.5 -490t-404.5 -182.5t-404.5 182.5t-150.5 490zM272 641.5q0 -251.5 89.5 -388t255.5 -136.5t256 136.5t90 388t-90 388t-256 136.5t-255.5 -136.5t-89.5 -388zM284 1443v173h173v-173h-173z M777 1443v173h173v-173h-173z" />
<glyph unicode="&#xd7;" d="M76 105l436 436l-436 436l104 105l436 -436l437 436l104 -105l-436 -436l436 -436l-104 -105l-436 436l-437 -436z" />
<glyph unicode="&#xd8;" d="M62 -31l141 197q-141 205 -141 493.5t150.5 471.5t402.5 183q195 0 330 -107l76 107h151l-140 -197q140 -207 140 -494.5t-150.5 -470.5t-401.5 -183q-192 0 -332 106l-76 -106h-150zM272 652q0 -179 50 -319l523 734q-91 99 -227 99q-165 0 -255.5 -135t-90.5 -379z M388 216q92 -99 244 -99t241.5 137t89.5 390q0 162 -50 306z" />
<glyph unicode="&#xd9;" d="M153 507v776h197v-779q0 -204 64.5 -295.5t212.5 -91.5t215 91.5t67 300.5v774h172v-745q0 -241 -57 -346q-121 -223 -399 -223q-241 0 -356.5 132t-115.5 406zM297 1616h271l222 -222h-160z" />
<glyph unicode="&#xda;" d="M153 507v776h197v-779q0 -204 64.5 -295.5t212.5 -91.5t215 91.5t67 300.5v774h172v-745q0 -241 -57 -346q-121 -223 -399 -223q-241 0 -356.5 132t-115.5 406zM469 1394l222 222h271l-333 -222h-160z" />
<glyph unicode="&#xdb;" d="M153 507v776h197v-779q0 -204 64.5 -295.5t212.5 -91.5t215 91.5t67 300.5v774h172v-745q0 -241 -57 -346q-121 -223 -399 -223q-241 0 -356.5 132t-115.5 406zM272 1394l222 222h271l222 -222h-160l-198 132l-197 -132h-160z" />
<glyph unicode="&#xdc;" d="M153 507v776h197v-779q0 -204 64.5 -295.5t212.5 -91.5t215 91.5t67 300.5v774h172v-745q0 -241 -57 -346q-121 -223 -399 -223q-241 0 -356.5 132t-115.5 406zM324 1443v173h173v-173h-173zM817 1443v173h173v-173h-173z" />
<glyph unicode="&#xdd;" d="M32 1283h227l373 -592l408 592h187l-511 -758v-525h-197v525zM472 1394l222 222h271l-333 -222h-160z" />
<glyph unicode="&#xde;" d="M228 0v1283h197v-234h220q223 0 318 -41q194 -83 194 -324q0 -201 -156.5 -316t-431.5 -115h-144v-253h-197zM425 401h123q400 0 400 279q0 119 -75.5 170t-251.5 51h-196v-500z" />
<glyph unicode="&#xdf;" d="M191 0v1160q0 247 85.5 345.5t277.5 98.5t290.5 -71t98.5 -194.5t-115 -273.5l-45 -58q-47 -61 -47 -111.5t61 -102.5l208 -178q171 -147 171 -303.5t-93 -246.5t-241.5 -90t-309.5 57v171q183 -80 279 -80q180 0 180 157q0 54 -23.5 91t-96.5 100l-193 167 q-118 101 -118 202.5t98 240.5l34 50q54 77 54 172q0 153 -179 153t-179 -222v-1234h-197z" />
<glyph unicode="&#xe0;" d="M136 281q0 169 150 272t396 103h122v93q0 115 -51 164t-169 49q-171 0 -354 -96v169q210 75 405.5 75t281 -82t85.5 -283v-455q0 -98 21 -133.5t79 -35.5q19 0 62 10l18 -118q-99 -32 -150 -32q-146 0 -197 150q-179 -150 -342.5 -150t-260 85t-96.5 215zM311 1604h228 l241 -321h-148zM340 314q0 -79 52 -127t138 -48q129 0 274 120v274h-59q-405 0 -405 -219z" />
<glyph unicode="&#xe1;" d="M136 281q0 169 150 272t396 103h122v93q0 115 -51 164t-169 49q-171 0 -354 -96v169q210 75 405.5 75t281 -82t85.5 -283v-455q0 -98 21 -133.5t79 -35.5q19 0 62 10l18 -118q-99 -32 -150 -32q-146 0 -197 150q-179 -150 -342.5 -150t-260 85t-96.5 215zM340 314 q0 -79 52 -127t138 -48q129 0 274 120v274h-59q-405 0 -405 -219zM484 1283l241 321h228l-321 -321h-148z" />
<glyph unicode="&#xe2;" d="M136 281q0 169 150 272t396 103h122v93q0 115 -51 164t-169 49q-171 0 -354 -96v169q210 75 405.5 75t281 -82t85.5 -283v-455q0 -98 21 -133.5t79 -35.5q19 0 62 10l18 -118q-99 -32 -150 -32q-146 0 -197 150q-179 -150 -342.5 -150t-260 85t-96.5 215zM282 1283 l241 321h218l241 -321h-148l-201 202h-2l-201 -202h-148zM340 314q0 -79 52 -127t138 -48q129 0 274 120v274h-59q-405 0 -405 -219z" />
<glyph unicode="&#xe3;" d="M136 281q0 169 150 272t396 103h122v93q0 115 -51 164t-169 49q-171 0 -354 -96v169q210 75 405.5 75t281 -82t85.5 -283v-455q0 -98 21 -133.5t79 -35.5q19 0 62 10l18 -118q-99 -32 -150 -32q-146 0 -197 150q-179 -150 -342.5 -150t-260 85t-96.5 215zM267 1283 q11 234 185 234q73 0 135 -38l60 -37q56 -35 85 -35q69 0 78 110h123q-11 -234 -185 -234q-73 0 -135 39l-60 37q-56 34 -85 34q-69 0 -78 -110h-123zM340 314q0 -79 52 -127t138 -48q129 0 274 120v274h-59q-405 0 -405 -219z" />
<glyph unicode="&#xe4;" d="M136 281q0 169 150 272t396 103h122v93q0 115 -51 164t-169 49q-171 0 -354 -96v169q210 75 405.5 75t281 -82t85.5 -283v-455q0 -98 21 -133.5t79 -35.5q19 0 62 10l18 -118q-99 -32 -150 -32q-146 0 -197 150q-179 -150 -342.5 -150t-260 85t-96.5 215zM340 314 q0 -79 52 -127t138 -48q129 0 274 120v274h-59q-405 0 -405 -219zM375 1283v173h173v-173h-173zM770 1283v173h173v-173h-173z" />
<glyph unicode="&#xe5;" d="M136 281q0 169 150 272t396 103h122v93q0 115 -51 164t-169 49q-171 0 -354 -96v169q210 75 405.5 75t281 -82t85.5 -283v-455q0 -98 21 -133.5t79 -35.5q19 0 62 10l18 -118q-99 -32 -150 -32q-146 0 -197 150q-179 -150 -342.5 -150t-260 85t-96.5 215zM340 314 q0 -79 52 -127t138 -48q129 0 274 120v274h-59q-405 0 -405 -219zM447 1431q0 77 54 131t131 54t131 -54t54 -131t-54 -131t-131 -54t-131 54t-54 131zM521 1431q0 -46 32.5 -78.5t78.5 -32.5t78.5 32.5t32.5 78.5t-32.5 78.5t-78.5 32.5t-78.5 -32.5t-32.5 -78.5z" />
<glyph unicode="&#xe6;" d="M49 297q0 145 117 250t290 105h66v116q0 194 -161 194q-96 0 -219 -53v150q136 51 272 51q170 0 244 -119q94 119 220 119q326 0 326 -526v-68h-496q0 -205 52 -294t172 -89t266 64v-156q-207 -66 -311 -66t-171 34.5t-123 116.5q-118 -151 -249.5 -151t-213 88.5 t-81.5 233.5zM234 321q0 -84 42 -131t104 -47t120 59l22 23v304h-48q-103 0 -171.5 -62t-68.5 -146zM708 652h311v47q0 144 -33 203.5t-111 59.5t-122 -71t-44 -194z" />
<glyph unicode="&#xe7;" d="M163 540.5q0 269.5 151.5 419.5t421.5 150q172 0 347 -52v-165q-193 69 -329 69q-178 0 -279.5 -112t-101.5 -308t108.5 -307.5t299.5 -111.5q143 0 322 67v-155q-175 -60 -349 -60q-284 0 -437.5 148t-153.5 417.5zM511 -330q46 -15 105 -15q103 0 103 74q0 96 -187 96 l95 175h97l-60 -109q77 0 135.5 -47.5t58.5 -113.5t-58.5 -114t-136.5 -48t-152 21v81z" />
<glyph unicode="&#xe8;" d="M141 523.5q0 260.5 144.5 423.5t368.5 163t330.5 -135t106.5 -420v-63h-740q22 -369 398 -369q159 0 349 76v-156q-205 -68 -376 -68q-280 0 -430.5 144t-150.5 404.5zM334 1604h228l241 -321h-148zM357 640h524v28q0 294 -245 294q-118 0 -191.5 -85t-87.5 -237z" />
<glyph unicode="&#xe9;" d="M141 523.5q0 260.5 144.5 423.5t368.5 163t330.5 -135t106.5 -420v-63h-740q22 -369 398 -369q159 0 349 76v-156q-205 -68 -376 -68q-280 0 -430.5 144t-150.5 404.5zM357 640h524v28q0 294 -245 294q-118 0 -191.5 -85t-87.5 -237zM506 1283l241 321h228l-321 -321 h-148z" />
<glyph unicode="&#xea;" d="M141 523.5q0 260.5 144.5 423.5t368.5 163t330.5 -135t106.5 -420v-63h-740q22 -369 398 -369q159 0 349 76v-156q-205 -68 -376 -68q-280 0 -430.5 144t-150.5 404.5zM302 1283l241 321h218l241 -321h-148l-201 202h-2l-201 -202h-148zM357 640h524v28q0 294 -245 294 q-118 0 -191.5 -85t-87.5 -237z" />
<glyph unicode="&#xeb;" d="M141 523.5q0 260.5 144.5 423.5t368.5 163t330.5 -135t106.5 -420v-63h-740q22 -369 398 -369q159 0 349 76v-156q-205 -68 -376 -68q-280 0 -430.5 144t-150.5 404.5zM357 640h524v28q0 294 -245 294q-118 0 -191.5 -85t-87.5 -237zM411 1283v173h173v-173h-173z M806 1283v173h173v-173h-173z" />
<glyph unicode="&#xec;" d="M173 938v148h592v-1086h-197v938h-395zM346 1604h228l241 -321h-148z" />
<glyph unicode="&#xed;" d="M173 938v148h592v-1086h-197v938h-395zM481 1283l241 321h228l-321 -321h-148z" />
<glyph unicode="&#xee;" d="M173 938v148h592v-1086h-197v938h-395zM318 1283l241 321h218l241 -321h-148l-201 202h-2l-201 -202h-148z" />
<glyph unicode="&#xef;" d="M173 938v148h592v-1086h-197v938h-395zM370 1283v173h173v-173h-173zM765 1283v173h173v-173h-173z" />
<glyph unicode="&#xf0;" d="M112 533.5q0 248.5 138 401.5t359 153q62 0 136 -21q-56 99 -205 221l-237 -158l-69 103l188 129q-131 59 -309 69v148h23q250 0 444 -112l169 112l71 -101l-130 -89q206 -145 320.5 -359.5t114.5 -469.5t-139 -420t-367 -165t-367.5 155t-139.5 403.5zM322 536.5 q0 -190.5 81 -302t220.5 -111.5t221 113.5t81.5 309.5q0 397 -299 397q-143 0 -224 -108t-81 -298.5z" />
<glyph unicode="&#xf1;" d="M182 0v1086h197v-204q136 228 370 228q309 0 309 -367v-743h-197v689q0 127 -39.5 180.5t-132.5 53.5q-148 0 -310 -213v-710h-197zM281 1283q11 234 185 234q73 0 135 -38l60 -37q56 -35 85 -35q69 0 78 110h123q-11 -234 -185 -234q-73 0 -135 39l-60 37q-56 34 -85 34 q-69 0 -78 -110h-123z" />
<glyph unicode="&#xf2;" d="M105 542.5q0 264.5 137 416t375.5 151.5t375 -151.5t136.5 -416t-136.5 -416t-375.5 -151.5t-375.5 151.5t-136.5 416zM296 1604h228l241 -321h-148zM315 542.5q0 -197.5 80 -308.5t222 -111t222 111t80 308.5t-80 308.5t-222 111t-222 -111t-80 -308.5z" />
<glyph unicode="&#xf3;" d="M105 542.5q0 264.5 137 416t375.5 151.5t375 -151.5t136.5 -416t-136.5 -416t-375.5 -151.5t-375.5 151.5t-136.5 416zM315 542.5q0 -197.5 80 -308.5t222 -111t222 111t80 308.5t-80 308.5t-222 111t-222 -111t-80 -308.5zM469 1283l241 321h228l-321 -321h-148z" />
<glyph unicode="&#xf4;" d="M105 542.5q0 264.5 137 416t375.5 151.5t375 -151.5t136.5 -416t-136.5 -416t-375.5 -151.5t-375.5 151.5t-136.5 416zM267 1283l241 321h218l241 -321h-148l-201 202h-2l-201 -202h-148zM315 542.5q0 -197.5 80 -308.5t222 -111t222 111t80 308.5t-80 308.5t-222 111 t-222 -111t-80 -308.5z" />
<glyph unicode="&#xf5;" d="M105 542.5q0 264.5 137 416t375.5 151.5t375 -151.5t136.5 -416t-136.5 -416t-375.5 -151.5t-375.5 151.5t-136.5 416zM284 1283q11 234 185 234q73 0 135 -38l60 -37q56 -35 85 -35q69 0 78 110h123q-11 -234 -185 -234q-73 0 -135 39l-60 37q-56 34 -85 34 q-69 0 -78 -110h-123zM315 542.5q0 -197.5 80 -308.5t222 -111t222 111t80 308.5t-80 308.5t-222 111t-222 -111t-80 -308.5z" />
<glyph unicode="&#xf6;" d="M105 542.5q0 264.5 137 416t375.5 151.5t375 -151.5t136.5 -416t-136.5 -416t-375.5 -151.5t-375.5 151.5t-136.5 416zM315 542.5q0 -197.5 80 -308.5t222 -111t222 111t80 308.5t-80 308.5t-222 111t-222 -111t-80 -308.5zM333 1283v173h173v-173h-173zM728 1283v173 h173v-173h-173z" />
<glyph unicode="&#xf7;" d="M86 456v149h1061v-149h-1061zM505 0v222h223v-222h-223zM505 839v222h223v-222h-223z" />
<glyph unicode="&#xf8;" d="M105 -25l125 163q-125 162 -125 415t136.5 405t370.5 152q174 0 298 -82l64 82h155l-126 -165q126 -155 126 -409t-135.5 -407.5t-368.5 -153.5q-181 0 -303 81l-62 -81h-155zM315 526q0 -103 34 -198l8 -23l447 583q-82 74 -189 74q-144 0 -222 -113.5t-78 -322.5z M429 196q74 -73 190 -73q145 0 223 114t78 326q0 115 -43 219z" />
<glyph unicode="&#xf9;" d="M176 343v743h197v-689q0 -128 39 -181.5t133 -53.5q148 0 310 214v710h197v-1086h-197v204q-136 -229 -371 -229q-308 0 -308 368zM293 1604h228l241 -321h-148z" />
<glyph unicode="&#xfa;" d="M176 343v743h197v-689q0 -128 39 -181.5t133 -53.5q148 0 310 214v710h197v-1086h-197v204q-136 -229 -371 -229q-308 0 -308 368zM466 1283l241 321h228l-321 -321h-148z" />
<glyph unicode="&#xfb;" d="M176 343v743h197v-689q0 -128 39 -181.5t133 -53.5q148 0 310 214v710h197v-1086h-197v204q-136 -229 -371 -229q-308 0 -308 368zM264 1283l241 321h218l241 -321h-148l-201 202h-2l-201 -202h-148z" />
<glyph unicode="&#xfc;" d="M176 343v743h197v-689q0 -128 39 -181.5t133 -53.5q148 0 310 214v710h197v-1086h-197v204q-136 -229 -371 -229q-308 0 -308 368zM355 1283v173h173v-173h-173zM750 1283v173h173v-173h-173z" />
<glyph unicode="&#xfd;" d="M85 1086h204l355 -813l358 813h177l-547 -1225q-64 -143 -153 -199.5t-253 -56.5h-84v148h80q112 0 163 36t107 155l49 104zM496 1283l241 321h228l-321 -321h-148z" />
<glyph unicode="&#xfe;" d="M179 -395v1974h197v-697q143 228 355 228q185 0 291.5 -142.5t106.5 -400.5t-126 -425t-330 -167q-175 0 -297 148v-518h-197zM376 271q137 -148 268.5 -148t203 114.5t71.5 320.5q0 384 -229 384q-167 0 -314 -208v-463z" />
<glyph unicode="&#xff;" d="M85 1086h204l355 -813l358 813h177l-547 -1225q-64 -143 -153 -199.5t-253 -56.5h-84v148h80q112 0 163 36t107 155l49 104zM367 1283v173h173v-173h-173zM762 1283v173h173v-173h-173z" />
<glyph unicode="&#x152;" d="M74 641q0 673 390 673q68 0 164 -31h532v-148h-336v-379h271v-148h-271v-460h392v-148h-586q-119 -32 -178 -32q-378 0 -378 673zM284 641.5q0 -281.5 47.5 -406t155.5 -124.5q80 0 109.5 54.5t29.5 200.5l1 563q0 136 -31 189.5t-109 53.5q-108 0 -155.5 -124.5 t-47.5 -406z" />
<glyph unicode="&#x153;" d="M49 542q0 262 96 415t264 153q81 0 132 -35.5t101 -126.5q100 162 246 162q319 0 319 -541v-54h-468l-1 -35q0 -353 231 -353q92 0 236 78v-162q-170 -68 -292 -68q-181 0 -283 147q-80 -147 -235.5 -147t-250.5 152.5t-95 414.5zM246 543q0 -419 154 -419t154 394 q0 444 -154 444t-154 -419zM739 651h282l1 46q0 155 -27 210t-101 55q-154 0 -154 -257z" />
<glyph unicode="&#x178;" d="M32 1283h227l373 -592l408 592h187l-511 -758v-525h-197v525zM317 1443v173h173v-173h-173zM810 1443v173h173v-173h-173z" />
<glyph unicode="&#x2c6;" d="M259 1394l222 222h271l222 -222h-160l-198 132l-197 -132h-160z" />
<glyph unicode="&#x2dc;" d="M284 1394q11 222 192 222q68 0 133 -35l59 -34q55 -30 84 -30q69 0 75 99h123q-12 -222 -191 -222q-69 0 -133 36l-60 33q-54 30 -90 30q-63 0 -68 -99h-124z" />
<glyph unicode="&#x2000;" horiz-adv-x="808" />
<glyph unicode="&#x2001;" horiz-adv-x="1616" />
<glyph unicode="&#x2002;" horiz-adv-x="808" />
<glyph unicode="&#x2003;" horiz-adv-x="1616" />
<glyph unicode="&#x2004;" horiz-adv-x="538" />
<glyph unicode="&#x2005;" horiz-adv-x="404" />
<glyph unicode="&#x2006;" horiz-adv-x="269" />
<glyph unicode="&#x2007;" horiz-adv-x="269" />
<glyph unicode="&#x2008;" horiz-adv-x="202" />
<glyph unicode="&#x2009;" horiz-adv-x="323" />
<glyph unicode="&#x200a;" horiz-adv-x="89" />
<glyph unicode="&#x2010;" d="M210 543v148h814v-148h-814z" />
<glyph unicode="&#x2011;" d="M210 543v148h814v-148h-814z" />
<glyph unicode="&#x2012;" d="M210 543v148h814v-148h-814z" />
<glyph unicode="&#x2013;" d="M136 543v123h962v-123h-962z" />
<glyph unicode="&#x2014;" d="M62 543v123h1110v-123h-1110z" />
<glyph unicode="&#x2018;" d="M469 962v180q0 421 296 437v-99q-111 -13 -123 -222h123v-296h-296z" />
<glyph unicode="&#x2019;" d="M469 962v99q111 14 123 222h-123v296h296v-179q0 -421 -296 -438z" />
<glyph unicode="&#x201a;" d="M469 0v296h296v-179q0 -422 -296 -438v99q111 13 123 222h-123z" />
<glyph unicode="&#x201c;" d="M247 1036v222q0 321 247 321v-99q-105 0 -105 -145v-52h105v-247h-247zM740 1036v222q0 321 247 321v-99q-105 0 -105 -145v-52h105v-247h-247z" />
<glyph unicode="&#x201d;" d="M247 1036v99q105 0 105 145v52h-105v247h247v-222q0 -321 -247 -321zM740 1036v99q105 0 105 145v52h-105v247h247v-222q0 -321 -247 -321z" />
<glyph unicode="&#x201e;" d="M247 0v247h247v-222q0 -321 -247 -321v99q105 0 105 145v52h-105zM740 0v247h247v-222q0 -321 -247 -321v99q105 0 105 145v52h-105z" />
<glyph unicode="&#x2022;" d="M321 586q0 123 86.5 209.5t209.5 86.5t209.5 -86.5t86.5 -209.5t-86.5 -209.5t-209.5 -86.5t-209.5 86.5t-86.5 209.5z" />
<glyph unicode="&#x2026;" d="M107 0v197h197v-197h-197zM518 0v197h198v-197h-198zM929 0v197h198v-197h-198z" />
<glyph unicode="&#x202f;" horiz-adv-x="323" />
<glyph unicode="&#x2039;" d="M347 537l443 456l96 -82l-315 -374l313 -371l-91 -80z" />
<glyph unicode="&#x203a;" d="M347 168l315 375l-313 371l91 79l446 -450l-443 -457z" />
<glyph unicode="&#x205f;" horiz-adv-x="404" />
<glyph unicode="&#x20ac;" horiz-adv-x="1235" d="M18 543l31 147h96v101h-127l31 147h113l2 6q47 261 211 417.5t389 156.5q162 0 332 -105v-180q-170 135 -328 135q-174 0 -292 -164q-38 -52 -71.5 -135t-33.5 -125v-6h569l-31 -147h-555v-101h537l-33 -147h-483l2 -6q41 -184 164.5 -299t265.5 -115t305 121l18 -168 q-175 -113 -356 -113q-236 0 -404 156q-109 101 -174 273q-36 96 -36 145v6h-142z" />
<glyph unicode="&#x2122;" d="M96 1357v123h636l127 -393l123 393h156v-740h-148v479l-111 -355h-95l-101 312v-436h-111v617h-169v-617h-148v617h-159z" />
<glyph unicode="&#xe000;" horiz-adv-x="1085" d="M0 0v1085h1085v-1085h-1085z" />
<glyph unicode="&#xfb01;" d="M123 913v148h136v177q0 366 339 366q57 0 142 -15v-159q-90 26 -142 26q-142 0 -142 -193v-202h592v-1061h-197v913h-395v-913h-197v913h-136zM851 1283v197h197v-197h-197z" />
<glyph unicode="&#xfb02;" d="M123 913v148h136v143q0 400 374 400q94 0 212 -25h203v-1579h-197v1418q-117 38 -218.5 38t-139 -47.5t-37.5 -159.5v-188h222v-148h-222v-913h-197v913h-136z" />
</font>
</defs>
</svg>
