<?xml version="1.0" standalone="no"?>
<!DOCTYPE svg PUBLIC "-//W3C//DTD SVG 1.1//EN" "http://www.w3.org/Graphics/SVG/1.1/DTD/svg11.dtd" >
<svg xmlns="http://www.w3.org/2000/svg">
<metadata>
This is a custom SVG webfont generated by Font Squirrel.
Copyright   : C2007 House IndustriesBrand Design Co Inc All Rights Reserved
Designer    : Christian Schwartz
Foundry     : House Industries
Foundry URL : httpwwwhouseindustriescom
</metadata>
<defs>
<font id="Neutraface2DisplayBold" horiz-adv-x="1320" >
<font-face units-per-em="2048" ascent="1597" descent="-451" />
<missing-glyph horiz-adv-x="372" />
<glyph unicode=" "  horiz-adv-x="372" />
<glyph unicode="&#x09;" horiz-adv-x="372" />
<glyph unicode="&#xa0;" horiz-adv-x="372" />
<glyph unicode="!" horiz-adv-x="471" d="M92 131.5q0 61.5 43 102t100.5 40.5t100.5 -40.5t43 -102t-43 -102.5t-100.5 -41t-100.5 41t-43 102.5zM119 1393h233l-30 -959h-172z" />
<glyph unicode="&#x22;" horiz-adv-x="669" d="M66 1393h225l-25 -414h-176zM379 1393h225l-24 -414h-177z" />
<glyph unicode="#" horiz-adv-x="966" d="M43 401v168h164l41 158h-123v168h166l47 190h176l-49 -190h160l47 190h176l-49 -190h125v-168h-168l-39 -158h131l-6 -168h-168l-45 -178h-176l45 178h-158l-45 -178h-176l45 178h-121zM383 569h158l41 158h-160z" />
<glyph unicode="$" horiz-adv-x="927" d="M35 213l162 106q78 -131 200 -155v317q-170 59 -237.5 134t-67.5 198q0 119 80 196.5t225 90.5v174h150v-180q170 -29 262 -164l-147 -109q-53 74 -115 94v-274q166 -53 245.5 -133t79.5 -205q0 -141 -82.5 -222t-242.5 -95v-224h-150v224q-243 28 -362 227zM291 821 q0 -41 21.5 -70.5t84.5 -58.5v234q-106 -17 -106 -105zM547 162q127 23 127 131q0 51 -26.5 80.5t-100.5 56.5v-268z" />
<glyph unicode="%" horiz-adv-x="1374" d="M39 827q0 117 84 196t198.5 79t198.5 -79t84 -196q0 -115 -84 -194.5t-198.5 -79.5t-198.5 79.5t-84 194.5zM219 827q0 -47 30 -76.5t73 -29.5t71.5 29.5t28.5 76.5t-28.5 77t-71.5 30t-73 -30t-30 -77zM262 0l633 1085h203l-633 -1085h-203zM756 256q0 117 83 195.5 t197.5 78.5t198.5 -78.5t84 -195.5q0 -115 -84 -194.5t-198.5 -79.5t-197.5 79.5t-83 194.5zM936 256q0 -47 28.5 -76.5t71.5 -29.5t73 29.5t30 76.5t-30 76.5t-73 29.5t-71.5 -29.5t-28.5 -76.5z" />
<glyph unicode="&#x26;" horiz-adv-x="1343" d="M66 393q0 147 82.5 242.5t254.5 193.5q-106 135 -106 279q0 127 89 215t239 88q147 0 232 -82t85 -213q0 -92 -61.5 -169t-190.5 -152l266 -342q49 123 50 301h200q0 -276 -114 -473l219 -281h-262l-93 119q-162 -137 -387 -137q-233 0 -368 113.5t-135 297.5zM293 393 q0 -102 72.5 -161.5t205.5 -59.5q158 0 267 98l-334 430q-115 -66 -163 -137.5t-48 -169.5zM508 1108q0 -80 74 -174l8 -10q80 49 112.5 91t32.5 101q0 47 -28.5 79t-81.5 32q-57 0 -87 -34t-30 -85z" />
<glyph unicode="'" horiz-adv-x="356" d="M66 1393h225l-25 -414h-176z" />
<glyph unicode="(" horiz-adv-x="626" d="M94 596q0 512 365 877l127 -105q-270 -322 -270.5 -772.5t270.5 -771.5l-127 -105q-365 365 -365 877z" />
<glyph unicode=")" horiz-adv-x="626" d="M41 -176q270 322 270 772.5t-270 771.5l127 105q365 -365 364.5 -877t-364.5 -877z" />
<glyph unicode="*" horiz-adv-x="770" d="M104 1049l166 67l-166 68l82 141l138 -111l-23 179h168l-25 -179l140 111l82 -141l-168 -68l168 -67l-82 -142l-138 107l23 -174h-168l23 174l-138 -107z" />
<glyph unicode="+" horiz-adv-x="739" d="M74 438v185h200v213h191v-213h201v-185h-201v-213h-191v213h-200z" />
<glyph unicode="," horiz-adv-x="434" d="M74 131q0 61 43 102t100 41t100 -40.5t43 -102.5q0 -51 -53 -139l-112 -189h-113l72 199q-80 39 -80 129z" />
<glyph unicode="-" horiz-adv-x="512" d="M68 338v186h376v-186h-376z" />
<glyph unicode="." horiz-adv-x="434" d="M74 131.5q0 61.5 43 102t100 40.5t100 -40.5t43 -102t-43 -102.5t-100 -41t-100 41t-43 102.5z" />
<glyph unicode="/" horiz-adv-x="851" d="M-2 -262l588 1716h211l-588 -1716h-211z" />
<glyph unicode="0" horiz-adv-x="1085" d="M63 543q0 252 137.5 405.5t342.5 153.5t342 -153.5t137 -405.5q0 -250 -137 -405.5t-342 -155.5t-342.5 155.5t-137.5 405.5zM285 543q0 -170 69.5 -271.5t188.5 -101.5t188.5 101.5t69.5 271.5t-69.5 270t-188.5 100t-188.5 -100t-69.5 -270z" />
<glyph unicode="1" horiz-adv-x="602" d="M59 905v180h383v-1085h-213v905h-170z" />
<glyph unicode="2" horiz-adv-x="905" d="M4 0v10l387 422q84 90 112.5 124t61.5 94.5t33 115.5q0 68 -39 107.5t-113 39.5q-72 0 -124 -47t-74 -127l-187 72q43 137 147.5 214t240.5 77q172 0 269 -91t97 -241q0 -98 -57.5 -190.5t-182.5 -227.5l-159 -172h420v-180h-832z" />
<glyph unicode="3" horiz-adv-x="954" d="M33 250l180 92q80 -176 254 -176q98 0 154.5 51t56.5 148q0 92 -69.5 141t-170.5 49q-90 0 -168 -25l-16 31l278 344h-413v180h762v-10l-301 -379q131 -12 224 -104t93 -232q0 -166 -111.5 -272t-318.5 -106q-162 0 -274.5 81t-159.5 187z" />
<glyph unicode="4" horiz-adv-x="995" d="M18 203v45l740 856h41v-739h141v-162h-141v-203h-207v203h-574zM326 365h266v313z" />
<glyph unicode="5" horiz-adv-x="917" d="M35 219l178 92q74 -145 229 -145q94 0 146.5 49t52.5 137q0 178 -229 178q-147 0 -256 -77l-11 6v626h639v-180h-456v-209q53 16 141 17q170 0 280.5 -102.5t110.5 -262.5q0 -164 -107.5 -265t-310.5 -101q-145 0 -253.5 70.5t-153.5 166.5z" />
<glyph unicode="6" horiz-adv-x="935" d="M63 352q0 162 144 350l291 383h233l-289 -378q31 10 74 10q154 0 257.5 -101.5t103.5 -259.5q0 -170 -118 -272t-290 -102t-289 100t-117 270zM279 356q0 -84 51 -137t139 -53t139 53t51 137q0 82 -54 139.5t-138 57.5q-90 0 -139 -54.5t-49 -142.5z" />
<glyph unicode="7" horiz-adv-x="927" d="M59 905v180h824v-10l-508 -1075h-225l430 905h-521z" />
<glyph unicode="8" horiz-adv-x="913" d="M59 319q0 195 197 277q-135 70 -135 217q0 117 92 203t243.5 86t244 -86t92.5 -203q0 -147 -136 -217q199 -86 199 -277q0 -145 -111.5 -241t-287.5 -96q-174 0 -286 96t-112 241zM274 338q0 -76 50.5 -125t132.5 -49t132 49t50 125t-50 125t-132 49t-132.5 -49 t-50.5 -125zM334 807q0 -53 34.5 -89t88 -36t88.5 36t35 89t-35 87t-88.5 34t-88 -34t-34.5 -87z" />
<glyph unicode="9" horiz-adv-x="935" d="M59 729q0 170 118 272.5t290 102.5t288.5 -100.5t116.5 -270.5q0 -162 -143 -350l-291 -383h-233l289 379q-31 -10 -74 -10q-154 0 -257.5 101t-103.5 259zM276 729q0 -82 54.5 -139.5t138.5 -57.5q90 0 139 54.5t49 142.5q0 84 -51 137.5t-139 53.5t-139.5 -53.5 t-51.5 -137.5z" />
<glyph unicode=":" horiz-adv-x="454" d="M84 131.5q0 61.5 43 102t100.5 40.5t100.5 -40.5t43 -102t-43 -102.5t-100.5 -41t-100.5 41t-43 102.5zM84 544.5q0 61.5 43 102.5t100.5 41t100.5 -41t43 -102.5t-43 -102.5t-100.5 -41t-100.5 41t-43 102.5z" />
<glyph unicode=";" horiz-adv-x="454" d="M84 131q0 61 43 102t100.5 41t100.5 -40.5t43 -102.5q0 -51 -54 -139l-112 -189h-113l72 199q-80 39 -80 129zM84 544.5q0 61.5 43 102.5t100.5 41t100.5 -41t43 -102.5t-43 -102.5t-100.5 -41t-100.5 41t-43 102.5z" />
<glyph unicode="&#x3c;" horiz-adv-x="663" d="M53 496v8l539 309v-186l-225 -129l225 -129v-187z" />
<glyph unicode="=" horiz-adv-x="739" d="M74 295v184h592v-184h-592zM74 571v185h592v-185h-592z" />
<glyph unicode="&#x3e;" horiz-adv-x="663" d="M72 182v187l225 129l-225 129v186l538 -313v-8z" />
<glyph unicode="?" horiz-adv-x="927" d="M33 1163q55 109 158.5 178.5t246.5 69.5q195 0 310.5 -113.5t115.5 -281.5q0 -162 -87 -264.5t-257 -130.5v-197h-201v369h74q127 0 188.5 63.5t61.5 159.5q0 86 -55.5 146.5t-147.5 60.5q-84 0 -138 -40t-101 -118zM274 131.5q0 61.5 43 102t100.5 40.5t100.5 -40.5 t43 -102t-43 -102.5t-100.5 -41t-100.5 41t-43 102.5z" />
<glyph unicode="@" horiz-adv-x="1583" d="M51 344q0 315 223.5 522t530.5 207q317 0 521 -189.5t204 -484.5q0 -209 -86 -315.5t-230 -106.5q-178 0 -241 127q-76 -123 -242 -122q-131 0 -223 99t-92 249q0 152 92 252t223 100t193 -92v74h206v-416q0 -111 89 -111q55 0 93 65.5t38 192.5q0 246 -147.5 379 t-403.5 133q-246 0 -398.5 -156.5t-152.5 -406.5q0 -252 157.5 -407.5t421.5 -155.5q170 0 287 59l82 -145q-137 -80 -362 -80q-340 0 -561.5 203.5t-221.5 525.5zM633 330q0 -80 38 -125t107 -45q72 0 110 45t38 125q0 82 -38 128t-110 46q-70 0 -107.5 -46t-37.5 -128z " />
<glyph unicode="A" d="M43 0l610 1421h13l612 -1421h-231l-109 260h-565l-109 -260h-221zM453 453h405l-201 487z" />
<glyph unicode="B" horiz-adv-x="1204" d="M152 0v1393h495q199 0 306.5 -101.5t107.5 -261.5q0 -106 -54.5 -184t-154.5 -109q272 -63 272 -342q0 -176 -115.5 -285.5t-326.5 -109.5h-530zM369 188h301q117 0 177 60.5t60 163.5q0 104 -64.5 164.5t-185.5 60.5h-288v-449zM369 813h266q104 0 157.5 53.5 t53.5 143.5q0 195 -215 194h-262v-391z" />
<glyph unicode="C" horiz-adv-x="1454" d="M84 696.5q0 307.5 205 511t506 203.5q365 0 557 -270l-168 -119q-141 190 -396 190q-207 0 -342 -147t-135 -369q0 -225 137.5 -370.5t348.5 -145.5q260 0 417 203l170 -117q-109 -145 -252 -214.5t-344 -69.5q-299 0 -501.5 203.5t-202.5 511z" />
<glyph unicode="D" horiz-adv-x="1361" d="M152 0v1393h393q338 0 535.5 -191.5t197.5 -505t-197.5 -505t-535.5 -191.5h-393zM371 195h161q260 0 389.5 135t129.5 366.5t-129 366.5t-390 135h-161v-1003z" />
<glyph unicode="E" horiz-adv-x="1171" d="M152 0v1393h886v-195h-667v-399h592v-191h-592v-413h696v-195h-915z" />
<glyph unicode="F" horiz-adv-x="1105" d="M152 0v1393h868v-195h-649v-438h592v-195h-592v-565h-219z" />
<glyph unicode="G" horiz-adv-x="1480" d="M84 696q0 307 207 511t508 204q332 0 528 -221l-151 -143q-74 80 -159 122.5t-224 42.5q-211 0 -346.5 -146t-135.5 -370q0 -225 142.5 -370.5t375.5 -145.5q207 0 338 88v281h-372v194h575v-579q-221 -182 -541 -182q-322 0 -533.5 202.5t-211.5 511.5z" />
<glyph unicode="H" horiz-adv-x="1409" d="M152 0v1393h219v-617h667v617h219v-1393h-219v582h-667v-582h-219z" />
<glyph unicode="I" horiz-adv-x="534" d="M158 0v1393h219v-1393h-219z" />
<glyph unicode="J" horiz-adv-x="972" d="M31 219l180 111q43 -76 89 -113t126 -37q182 0 182 215v998h221v-1002q0 -201 -108.5 -305t-286.5 -104q-280 -1 -403 237z" />
<glyph unicode="K" horiz-adv-x="1261" d="M152 0v1393h219v-674l549 674h245l-493 -598l563 -795h-266l-443 629l-155 -185v-444h-219z" />
<glyph unicode="L" horiz-adv-x="1054" d="M152 0v1393h219v-1198h614v-195h-833z" />
<glyph unicode="M" horiz-adv-x="1675" d="M152 0v1421h10l680 -784l671 784h11v-1421h-207v903l-475 -567h-11l-473 567v-903h-206z" />
<glyph unicode="N" horiz-adv-x="1415" d="M152 0v1413h16l893 -936v916h205v-1413h-17l-893 935v-915h-204z" />
<glyph unicode="O" horiz-adv-x="1605" d="M84 696.5q0 307.5 208 511t511 203.5t511 -203.5t208 -511t-208 -511t-511 -203.5t-511 203.5t-208 511zM311 696.5q0 -223.5 138.5 -370t353.5 -146.5t353 146.5t138 370t-138 369.5t-353 146t-353.5 -146t-138.5 -369.5z" />
<glyph unicode="P" horiz-adv-x="1181" d="M152 0v1393h442q242 0 377 -123t135 -328q0 -209 -135 -329.5t-377 -120.5h-223v-492h-219zM371 686h215q154 0 223.5 63.5t69.5 192.5q0 131 -71 193.5t-222 62.5h-215v-512z" />
<glyph unicode="Q" horiz-adv-x="1605" d="M84 696q0 305 208 509t511 204t511 -204t208 -509q0 -276 -174 -472.5t-441 -233.5v-244h-209v244q-266 37 -440 233.5t-174 472.5zM311 696q0 -197 106.5 -337t280.5 -175v224h209v-224q174 35 280.5 175.5t106.5 336.5q0 223 -138 368.5t-353 145.5t-353.5 -145.5 t-138.5 -368.5z" />
<glyph unicode="R" horiz-adv-x="1224" d="M152 0v1393h446q242 0 377 -121t135 -322q0 -145 -69.5 -247.5t-200.5 -149.5l336 -553h-240l-311 514h-27h-227v-514h-219zM371 702h219q154 0 223.5 60.5t69.5 187.5t-71 187.5t-222 60.5h-219v-496z" />
<glyph unicode="S" horiz-adv-x="1087" d="M45 274l184 93q98 -188 316 -189q111 0 178.5 49t67.5 133q0 47 -15.5 83t-51.5 65t-67.5 45t-89.5 43l-96 43q-172 76 -259 167t-87 243q0 160 110.5 261t288.5 101q279 0 410 -219l-166 -109q-80 135 -240 136q-88 0 -139 -44.5t-51 -117.5q0 -78 47 -119t174 -98 l96 -43q178 -80 265.5 -173.5t87.5 -256.5q0 -186 -127 -285.5t-334 -99.5q-346 -1 -502 292z" />
<glyph unicode="T" horiz-adv-x="1144" d="M49 1198v195h1047v-195h-414v-1198h-219v1198h-414z" />
<glyph unicode="U" horiz-adv-x="1349" d="M143 492v901h219v-889q0 -324 314 -324q311 0 311 324v889h219v-901q0 -246 -147.5 -378t-382.5 -132q-238 0 -385.5 132t-147.5 378z" />
<glyph unicode="V" d="M43 1393h231l398 -936l385 936h221l-602 -1413h-12z" />
<glyph unicode="W" horiz-adv-x="1925" d="M41 1393h231l299 -889l394 917h12l395 -917l293 889h217l-487 -1411h-13l-411 970l-422 -970h-10z" />
<glyph unicode="X" horiz-adv-x="1312" d="M55 0l477 756l-401 637h248l278 -441l279 441h231l-395 -623l488 -770h-248l-363 573l-362 -573h-232z" />
<glyph unicode="Y" horiz-adv-x="1259" d="M41 1393h242l356 -625l350 625h230l-474 -836v-557h-219v555z" />
<glyph unicode="Z" horiz-adv-x="1224" d="M59 0v12l736 1186h-623v195h975v-13l-735 -1185h712v-195h-1065z" />
<glyph unicode="[" horiz-adv-x="628" d="M152 -262v1716h411v-178h-201v-1360h201v-178h-411z" />
<glyph unicode="\" horiz-adv-x="851" d="M55 1454h211l588 -1716h-211z" />
<glyph unicode="]" horiz-adv-x="628" d="M66 -84h200v1360h-200v178h411v-1716h-411v178z" />
<glyph unicode="^" horiz-adv-x="821" d="M33 834l373 579h12l370 -579h-202l-176 280l-177 -280h-200z" />
<glyph unicode="_" horiz-adv-x="552" d="M-4 -76h561v-186h-561v186z" />
<glyph unicode="`" horiz-adv-x="1024" d="M262 1122h232l102 -311h-160z" />
<glyph unicode="a" horiz-adv-x="778" d="M41 215q0 98 77 151.5t197 53.5h183q-2 127 -129 127q-102 0 -168 -76l-125 115q117 133 305 133q152 0 236.5 -79t84.5 -230v-410h-204v63q-70 -82 -197 -81q-115 0 -187.5 58t-72.5 175zM244 213q0 -68 94 -68q68 0 114 32t46 75v29h-172q-82 0 -82 -68z" />
<glyph unicode="b" horiz-adv-x="890" d="M86 0v1454h205v-833q61 98 217 98q137 0 233.5 -105.5t96.5 -263t-96.5 -263t-233.5 -105.5q-156 0 -217 98v-80h-205zM287 350q0 -86 45 -137t122.5 -51t125 51t47.5 137t-47.5 137.5t-125 51.5t-122.5 -51.5t-45 -137.5z" />
<glyph unicode="c" horiz-adv-x="772" d="M53 350q0 160 105.5 264.5t263.5 104.5q186 0 293 -123l-135 -125q-61 70 -152 70q-76 0 -120 -54.5t-44 -136.5t45 -136t123 -54q90 0 160 73l135 -122q-113 -129 -301 -129q-160 0 -266.5 104t-106.5 264z" />
<glyph unicode="d" horiz-adv-x="890" d="M53 350.5q0 157.5 96.5 263t233.5 105.5q156 0 217 -98v833h205v-1454h-205v80q-61 -98 -217 -98q-137 0 -233.5 105.5t-96.5 263zM264 350q0 -86 47 -137t125 -51t123 51t45 137t-45 137.5t-123 51.5t-125 -51.5t-47 -137.5z" />
<glyph unicode="e" horiz-adv-x="851" d="M53 350q0 160 108.5 264.5t270.5 104.5q180 0 281 -125q89 -111 89 -273q0 -20 -1 -40h-535q33 -127 183 -127q102 0 182 67l123 -123q-111 -117 -301 -116q-180 0 -290 103t-110 265zM268 424h318q-25 123 -154 123q-133 0 -164 -123z" />
<glyph unicode="f" horiz-adv-x="532" d="M39 530v170h82v508q0 129 62.5 195.5t172.5 66.5q129 0 199 -79l-115 -129q-23 29 -63 28q-51 0 -51 -80v-510h168v-170h-168v-530h-205v530h-82z" />
<glyph unicode="g" horiz-adv-x="890" d="M53 350.5q0 157.5 96.5 263t233.5 105.5q156 0 217 -98v79h205v-788q0 -174 -98.5 -270.5t-276.5 -96.5q-250 0 -369 215l160 90q74 -131 201 -131q178 0 178 193v168q-61 -98 -217 -98q-137 0 -233.5 105.5t-96.5 263zM264 350q0 -86 47 -137t125 -51t123 51t45 137 t-45 137.5t-123 51.5t-125 -51.5t-47 -137.5z" />
<glyph unicode="h" horiz-adv-x="845" d="M82 0v1454h205v-844q66 109 219 109q119 0 191.5 -79t72.5 -216v-424h-205v410q0 125 -125 125q-154 0 -153 -158v-377h-205z" />
<glyph unicode="i" horiz-adv-x="376" d="M59 960.5q0 53.5 39 91.5t90 38q53 0 91 -37t38 -92.5t-37.5 -92.5t-91.5 -37q-51 0 -90 38t-39 91.5zM86 0v700h205v-700h-205z" />
<glyph unicode="j" horiz-adv-x="376" d="M-129 -377l100 125q31 -27 60 -27q55 0 55 64v915h205v-909q0 -119 -58.5 -182.5t-166.5 -63.5q-125 0 -195 78zM59 960.5q0 53.5 39 91.5t90 38q53 0 91 -37t38 -92.5t-37.5 -92.5t-91.5 -37q-51 0 -90 38t-39 91.5z" />
<glyph unicode="k" horiz-adv-x="796" d="M82 0v1454h205v-1026l229 272h238l-250 -286l278 -414h-243l-172 258l-80 -90v-168h-205z" />
<glyph unicode="l" horiz-adv-x="376" d="M86 0v1454h205v-1454h-205z" />
<glyph unicode="m" horiz-adv-x="1271" d="M82 0v700h205v-79q63 98 196 98q139 0 199 -119q86 119 254 119q121 0 190.5 -79t69.5 -212v-428h-205v408q0 127 -112 127q-137 0 -138 -158v-377h-204v408q0 127 -113 127q-137 0 -137 -158v-377h-205z" />
<glyph unicode="n" horiz-adv-x="839" d="M82 0v700h205v-90q66 109 219 109q119 0 191.5 -79t72.5 -216v-424h-205v410q0 125 -125 125q-154 0 -153 -158v-377h-205z" />
<glyph unicode="o" horiz-adv-x="872" d="M53 350.5q0 157.5 110.5 263t272.5 105.5t272.5 -105.5t110.5 -263t-110.5 -263t-272.5 -105.5t-272.5 105.5t-110.5 263zM264 350q0 -86 47 -140t125 -54t125 54t47 140t-47 140.5t-125 54.5t-125 -54.5t-47 -140.5z" />
<glyph unicode="p" horiz-adv-x="890" d="M86 -434v1134h205v-79q61 98 217 98q137 0 233.5 -105.5t96.5 -263t-96.5 -263t-233.5 -105.5q-156 0 -217 98v-514h-205zM287 350q0 -86 45 -137t122.5 -51t125 51t47.5 137t-47.5 137.5t-125 51.5t-122.5 -51.5t-45 -137.5z" />
<glyph unicode="q" horiz-adv-x="890" d="M53 350.5q0 157.5 96.5 263t233.5 105.5q156 0 217 -98v79h205v-1134h-205v514q-61 -98 -217 -98q-137 0 -233.5 105.5t-96.5 263zM264 350q0 -86 47 -137t125 -51t123 51t45 137t-45 137.5t-123 51.5t-125 -51.5t-47 -137.5z" />
<glyph unicode="r" horiz-adv-x="618" d="M82 0v700h205v-108q61 127 200 127q61 0 111 -31l-66 -176q-41 23 -88 23q-158 0 -157 -205v-330h-205z" />
<glyph unicode="s" horiz-adv-x="669" d="M18 119l132 114q74 -88 182 -88q102 0 102 52q0 25 -25.5 39t-109.5 32q-231 49 -231 230q0 100 71.5 160.5t194.5 60.5q147 0 258 -101l-111 -122q-61 61 -141 61q-88 0 -88 -49q0 -27 27.5 -40t115.5 -30q233 -45 234 -225q0 -109 -76 -170t-217 -61q-199 0 -318 137z " />
<glyph unicode="t" horiz-adv-x="548" d="M39 530v170h82v252h205v-252h163v-170h-163v-284q0 -51 14 -69.5t45 -18.5q29 0 61 24l80 -143q-70 -57 -176 -57q-229 0 -229 260v288h-82z" />
<glyph unicode="u" horiz-adv-x="845" d="M76 276v424h205v-409q0 -125 125 -125q154 0 153 158v376h205v-700h-205v90q-66 -109 -219 -108q-119 0 -191.5 78.5t-72.5 215.5z" />
<glyph unicode="v" horiz-adv-x="776" d="M6 700h230l167 -340l162 340h205l-375 -718h-8z" />
<glyph unicode="w" horiz-adv-x="1112" d="M6 700h230l135 -331l186 350h6l197 -350l143 331h203l-328 -718h-8l-211 395l-221 -395h-8z" />
<glyph unicode="x" horiz-adv-x="802" d="M18 0l269 369l-238 331h234l125 -174l124 174h220l-238 -323l270 -377h-233l-156 217l-157 -217h-220z" />
<glyph unicode="y" horiz-adv-x="776" d="M6 700h230l167 -403l164 403h203l-473 -1134h-205l209 497z" />
<glyph unicode="z" horiz-adv-x="708" d="M31 0v8l325 522h-278v170h592v-8l-324 -522h305v-170h-620z" />
<glyph unicode="{" horiz-adv-x="712" d="M45 514v178h92q55 0 82 29t27 100v353q0 281 286 280h115v-178h-104q-45 0 -65.5 -21.5t-20.5 -74.5v-402q0 -147 -140 -174q139 -27 140 -174v-418q0 -53 20.5 -74.5t65.5 -21.5h104v-178h-115q-287 0 -286 280v367q0 72 -26.5 100.5t-82.5 28.5h-92z" />
<glyph unicode="|" horiz-adv-x="499" d="M143 -262v1716h213v-1716h-213z" />
<glyph unicode="}" horiz-adv-x="712" d="M66 -84h104q45 0 65.5 21.5t20.5 74.5v418q0 147 139 174q-139 27 -139 174v402q0 53 -20.5 74.5t-65.5 21.5h-104v178h114q287 0 287 -280v-353q0 -72 26.5 -100.5t81.5 -28.5h93v-178h-93q-55 0 -81.5 -28.5t-26.5 -100.5v-367q0 -281 -287 -280h-114v178z" />
<glyph unicode="~" horiz-adv-x="741" d="M61 469q14 106 70.5 167.5t132.5 61.5q55 0 114.5 -29.5t82.5 -29.5q43 0 59 57l158 -20q-14 -106 -69.5 -168t-131.5 -62q-55 0 -114.5 30t-81.5 30q-43 0 -60 -57z" />
<glyph unicode="&#xa1;" horiz-adv-x="471" d="M92 1261.5q0 61.5 43 102.5t100.5 41t100.5 -41t43 -102.5t-43 -102.5t-100.5 -41t-100.5 41t-43 102.5zM119 0l31 958h172l30 -958h-233z" />
<glyph unicode="&#xa2;" horiz-adv-x="782" d="M53 350q0 137 86 236.5t219 124.5v194h150v-190q139 -18 225 -129l-135 -117q-31 47 -90 68v-375q53 16 100 63l133 -114q-92 -106 -233 -125v-203h-150v207q-133 27 -219 125t-86 235zM260 350q0 -133 98 -178v356q-98 -45 -98 -178z" />
<glyph unicode="&#xa3;" horiz-adv-x="1015" d="M27 174q0 82 57 130t145 48q59 0 123 -26q-12 51 -47 114h-190v162h100q-45 94 -45 178q0 133 101.5 227.5t269.5 94.5q246 0 370 -205l-168 -104q-76 121 -200 120q-74 0 -115 -41t-41 -104q0 -72 43 -166h301v-162h-225q39 -92 39 -180q0 -14 -4 -43q84 -49 151 -49 q53 0 87 18.5t75 59.5l129 -131q-115 -133 -283 -133q-127 0 -239 86q-90 -86 -217 -86q-96 0 -156.5 54t-60.5 138zM182 168q0 -49 66 -49q70 0 94 53q-49 43 -96 43q-64 0 -64 -47z" />
<glyph unicode="&#xa5;" horiz-adv-x="1056" d="M45 1085h236l256 -469l258 469h217l-228 -387h185v-151h-273l-59 -103h332v-151h-334v-293h-213v293h-334v151h328l-60 103h-268v151h180z" />
<glyph unicode="&#xa7;" horiz-adv-x="1040" d="M43 365q0 160 170 249q-55 82 -55 174q0 143 98 228.5t258 85.5q231 0 360 -191l-165 -108q-70 117 -197 117q-72 0 -111 -32t-39 -89q0 -51 28 -81t106 -59l239 -88q266 -98 266 -325q0 -145 -170 -240q51 -70 52 -162q0 -131 -98.5 -210.5t-274.5 -79.5 q-131 0 -237.5 56t-157.5 146l153 115q90 -133 242 -133q158 0 158 102q0 41 -29 71t-113 58l-217 76q-137 49 -201.5 125t-64.5 195zM242 391q0 -57 27.5 -91t92.5 -56l222 -78q82 -31 129 -60q88 45 88 125q0 55 -29 87t-98 57l-240 84q-68 25 -123 61q-69 -47 -69 -129z " />
<glyph unicode="&#xa8;" horiz-adv-x="1024" d="M229 956.5q0 47.5 36 82t81 34.5q47 0 82 -33.5t35 -83t-35 -83t-82 -33.5q-45 0 -81 34.5t-36 82zM561 956.5q0 47.5 36 82t81 34.5q47 0 82 -33.5t35 -83t-35 -83t-82 -33.5q-45 0 -81 34.5t-36 82z" />
<glyph unicode="&#xa9;" horiz-adv-x="1255" d="M70 544.5q0 237.5 164.5 397.5t394.5 160q227 0 392 -160t165 -397.5t-165 -397t-392 -159.5q-229 0 -394 159.5t-165 397zM178 544.5q0 -194.5 131 -324.5t320 -130q186 0 317 131t131 323.5t-131 323.5t-317 131q-188 0 -319.5 -130t-131.5 -324.5zM297 544.5 q0 145.5 96 241t240 95.5q170 0 266 -113l-131 -121q-55 59 -131 60q-63 0 -99 -46.5t-36 -116t35.5 -115.5t101.5 -46q72 0 139 63l131 -118q-102 -119 -272 -119q-145 0 -242.5 95t-97.5 240.5z" />
<glyph unicode="&#xaa;" horiz-adv-x="714" d="M47 649q0 88 69.5 136.5t178.5 48.5h164q-2 111 -111 110q-92 0 -158 -70l-112 105q102 123 293 123q121 0 199.5 -70.5t78.5 -208.5v-368h-190v57q-66 -74 -178 -74q-102 0 -168 53.5t-66 157.5zM236 647q0 -57 77 -57q61 0 103.5 26.5t42.5 65.5v25h-156 q-31 0 -49 -17.5t-18 -42.5z" />
<glyph unicode="&#xab;" horiz-adv-x="825" d="M57 348v8l158 279h215l-158 -283l158 -286h-215zM395 348v8l158 279h215l-158 -283l158 -286h-215z" />
<glyph unicode="&#xad;" horiz-adv-x="512" d="M68 338v186h376v-186h-376z" />
<glyph unicode="&#xae;" horiz-adv-x="798" d="M53 1069q0 147 99.5 244.5t245 97.5t246.5 -97t101 -245q0 -145 -101 -242.5t-247 -97.5q-143 0 -243.5 97.5t-100.5 242.5zM129 1069q0 -119 76 -194.5t192 -75.5q119 0 197 75.5t78 194.5q0 121 -78 197.5t-197 76.5q-117 0 -192.5 -75.5t-75.5 -198.5zM254 881v385 h156q72 0 112.5 -38t40.5 -100q0 -78 -71 -110l79 -137h-112l-66 120h-33v-120h-106zM360 1081h43q55 0 55.5 47.5t-55.5 47.5h-43v-95z" />
<glyph unicode="&#xaf;" horiz-adv-x="1024" d="M295 862v156h434v-156h-434z" />
<glyph unicode="&#xb0;" horiz-adv-x="610" d="M68 870q0 98 70.5 165t171 67t171 -66.5t70.5 -165.5q0 -96 -70.5 -163.5t-171 -67.5t-171 67.5t-70.5 163.5zM213 870q0 -43 27.5 -71.5t68.5 -28.5t69 28.5t28 71.5t-28 72t-69 29t-68.5 -29t-27.5 -72z" />
<glyph unicode="&#xb2;" horiz-adv-x="731" d="M113 823v21l202 217q100 109 101 153q0 25 -17.5 39.5t-44.5 14.5q-63 0 -84 -74l-143 53q59 162 238 162q104 0 163.5 -50t59.5 -128q0 -53 -32 -100.5t-105 -124.5l-50 -52h199v-131h-487z" />
<glyph unicode="&#xb3;" horiz-adv-x="731" d="M121 936l119 65q35 -78 116 -77q41 0 67 23.5t26 64.5q0 84 -105 84q-49 0 -88 -17l-10 19l137 172h-217v123h440v-15l-164 -194q68 -12 113 -56.5t45 -115.5q0 -94 -60.5 -152.5t-174.5 -58.5q-172 0 -244 135z" />
<glyph unicode="&#xb4;" horiz-adv-x="1024" d="M428 811l102 311h232l-174 -311h-160z" />
<glyph unicode="&#xb6;" horiz-adv-x="1103" d="M80 1057q0 139 94 237.5t250 98.5h528v-1393h-188v1223h-121v-1223h-188v721h-31q-156 0 -250 98.5t-94 237.5z" />
<glyph unicode="&#xb7;" horiz-adv-x="434" d="M74 448.5q0 61.5 43 102.5t100 41t100 -41t43 -102.5t-43 -102.5t-100 -41t-100 41t-43 102.5z" />
<glyph unicode="&#xb8;" horiz-adv-x="1024" d="M324 -311l104 63q23 -43 68 -43q57 0 57 53q0 55 -64 56h-57v182h117v-88q63 -10 101 -51t38 -113q0 -70 -52 -114t-122 -44q-133 1 -190 99z" />
<glyph unicode="&#xb9;" horiz-adv-x="731" d="M164 1257v136h276v-570h-161v434h-115z" />
<glyph unicode="&#xba;" horiz-adv-x="804" d="M57 770q0 141 100.5 236.5t248.5 95.5q145 0 246.5 -95.5t101.5 -236.5q0 -143 -101.5 -237.5t-246.5 -94.5q-147 0 -248 94.5t-101 237.5zM254 770q0 -78 41 -125t110.5 -47t110.5 47t41 125q0 76 -41 123t-110.5 47t-110.5 -47t-41 -123z" />
<glyph unicode="&#xbb;" horiz-adv-x="825" d="M57 66l158 282l-158 287h215l158 -283v-8l-158 -278h-215zM395 66l158 282l-158 287h215l158 -283v-8l-158 -278h-215z" />
<glyph unicode="&#xbc;" horiz-adv-x="731" d="M68 637v121h596v-121h-596zM84 115v20l434 461h25v-381h80v-100h-80v-115h-140v115h-319zM164 1257v136h276v-570h-161v434h-115zM299 213h109v117z" />
<glyph unicode="&#xbd;" horiz-adv-x="731" d="M68 637v121h596v-121h-596zM113 0v20l202 218q100 109 101 153q0 25 -17.5 39t-44.5 14q-63 0 -84 -73l-143 53q59 162 238 162q104 0 163.5 -50.5t59.5 -127.5q0 -53 -32 -100.5t-105 -125.5l-50 -51h199v-131h-487zM164 1257v136h276v-570h-161v434h-115z" />
<glyph unicode="&#xbe;" horiz-adv-x="731" d="M68 637v121h596v-121h-596zM84 115v20l434 461h25v-381h80v-100h-80v-115h-140v115h-319zM121 936l119 65q35 -78 116 -77q41 0 67 23.5t26 64.5q0 84 -105 84q-49 0 -88 -17l-10 19l137 172h-217v123h440v-15l-164 -194q68 -12 113 -56.5t45 -115.5q0 -94 -60.5 -152.5 t-174.5 -58.5q-172 0 -244 135zM299 213h109v117z" />
<glyph unicode="&#xbf;" horiz-adv-x="927" d="M63 377q0 162 87.5 264t257.5 131v197h200v-369h-73q-127 0 -188.5 -63.5t-61.5 -159.5q0 -86 55 -146.5t147 -60.5q84 0 138.5 40t101.5 118l168 -99q-55 -109 -158.5 -178t-247.5 -69q-195 0 -310.5 113.5t-115.5 281.5zM367 1261.5q0 61.5 43 102.5t100 41t100 -41 t43 -102.5t-43 -102.5t-100 -41t-100 41t-43 102.5z" />
<glyph unicode="&#xc0;" d="M43 0l610 1421h13l612 -1421h-231l-109 260h-565l-109 -260h-221zM412 1798h231l102 -311h-159zM453 453h405l-201 487z" />
<glyph unicode="&#xc1;" d="M43 0l610 1421h13l612 -1421h-231l-109 260h-565l-109 -260h-221zM453 453h405l-201 487zM580 1487l102 311h231l-174 -311h-159z" />
<glyph unicode="&#xc2;" d="M43 0l610 1421h13l612 -1421h-231l-109 260h-565l-109 -260h-221zM391 1493l264 311h11l264 -311h-162l-106 88l-109 -88h-162zM453 453h405l-201 487z" />
<glyph unicode="&#xc3;" d="M43 0l610 1421h13l612 -1421h-231l-109 260h-565l-109 -260h-221zM354 1526q14 96 62.5 152.5t120.5 56.5q55 0 130.5 -27t98.5 -27q25 0 37 13.5t22 46.5l140 -19q-14 -96 -62.5 -152.5t-120.5 -56.5q-55 0 -131 27t-98 27q-25 0 -37 -13.5t-22 -46.5zM453 453h405 l-201 487z" />
<glyph unicode="&#xc4;" d="M43 0l610 1421h13l612 -1421h-231l-109 260h-565l-109 -260h-221zM377 1603.5q0 47.5 36 82t81 34.5q47 0 81.5 -33.5t34.5 -83t-34.5 -83t-81.5 -33.5q-45 0 -81 34.5t-36 82zM453 453h405l-201 487zM709 1603.5q0 47.5 35.5 82t80.5 34.5q47 0 82 -33.5t35 -83t-35 -83 t-82 -33.5q-45 0 -80.5 34.5t-35.5 82z" />
<glyph unicode="&#xc5;" d="M43 0l610 1421h13l612 -1421h-231l-109 260h-565l-109 -260h-221zM453 453h405l-201 487zM465 1659q0 76 58.5 130t136 54t136 -54t58.5 -130q0 -74 -58.5 -128t-136 -54t-136 54t-58.5 128zM592 1659q0 -33 18.5 -52.5t49 -19.5t49 19.5t18.5 52.5t-19.5 53.5t-48 20.5 t-48 -20.5t-19.5 -53.5z" />
<glyph unicode="&#xc6;" horiz-adv-x="1953" d="M23 0l935 1393h863v-195h-668v-399h592v-191h-592v-413h696v-195h-915v268h-510l-178 -268h-223zM545 451h389v583z" />
<glyph unicode="&#xc7;" horiz-adv-x="1454" d="M84 696q0 307 205 511t506 204q365 0 557 -270l-168 -119q-141 190 -396 190q-207 0 -342 -147t-135 -369q0 -225 137.5 -370.5t348.5 -145.5q260 0 417 203l170 -117q-209 -276 -569 -284v-70q63 -10 101 -51t38 -113q0 -70 -52 -114t-122 -44q-133 0 -190 99l104 63 q23 -43 68 -43q57 0 57 53q0 55 -63 56h-58v170q-266 31 -440 228t-174 480z" />
<glyph unicode="&#xc8;" horiz-adv-x="1171" d="M152 0v1393h886v-195h-667v-399h592v-191h-592v-413h696v-195h-915zM373 1798h231l103 -311h-160z" />
<glyph unicode="&#xc9;" horiz-adv-x="1171" d="M152 0v1393h886v-195h-667v-399h592v-191h-592v-413h696v-195h-915zM541 1487l102 311h231l-174 -311h-159z" />
<glyph unicode="&#xca;" horiz-adv-x="1171" d="M152 0v1393h886v-195h-667v-399h592v-191h-592v-413h696v-195h-915zM352 1493l264 311h11l264 -311h-162l-106 88l-109 -88h-162z" />
<glyph unicode="&#xcb;" horiz-adv-x="1171" d="M152 0v1393h886v-195h-667v-399h592v-191h-592v-413h696v-195h-915zM338 1603.5q0 47.5 36 82t81 34.5q47 0 81.5 -33.5t34.5 -83t-34.5 -83t-81.5 -33.5q-45 0 -81 34.5t-36 82zM670 1603.5q0 47.5 35.5 82t80.5 34.5q47 0 82 -33.5t35 -83t-34.5 -83t-82.5 -33.5 q-45 0 -80.5 34.5t-35.5 82z" />
<glyph unicode="&#xcc;" horiz-adv-x="534" d="M18 1798h232l102 -311h-159zM158 0v1393h219v-1393h-219z" />
<glyph unicode="&#xcd;" horiz-adv-x="534" d="M158 0v1393h219v-1393h-219zM186 1487l103 311h231l-174 -311h-160z" />
<glyph unicode="&#xce;" horiz-adv-x="534" d="M-2 1493l264 311h10l265 -311h-162l-107 88l-108 -88h-162zM158 0v1393h219v-1393h-219z" />
<glyph unicode="&#xcf;" horiz-adv-x="534" d="M-16 1603.5q0 47.5 35.5 82t80.5 34.5q47 0 82 -33.5t35 -83t-35 -83t-82 -33.5q-45 0 -80.5 34.5t-35.5 82zM158 0v1393h219v-1393h-219zM315 1603.5q0 47.5 36 82t81 34.5q47 0 82 -33.5t35 -83t-35 -83t-82 -33.5q-45 0 -81 34.5t-36 82z" />
<glyph unicode="&#xd0;" horiz-adv-x="1361" d="M23 608v191h129v594h393q338 0 535.5 -191.5t197.5 -505t-197.5 -505t-535.5 -191.5h-393v608h-129zM371 195h161q260 0 389.5 135t129.5 366.5t-129 366.5t-390 135h-161v-399h336v-191h-336v-413z" />
<glyph unicode="&#xd1;" horiz-adv-x="1415" d="M152 0v1413h16l893 -936v916h205v-1413h-17l-893 935v-915h-204zM412 1526q14 96 62 152.5t120 56.5q55 0 131 -27t98 -27q25 0 37 13.5t23 46.5l139 -19q-14 -96 -62.5 -152.5t-119.5 -56.5q-55 0 -131 27t-99 27q-25 0 -37 -13.5t-22 -46.5z" />
<glyph unicode="&#xd2;" horiz-adv-x="1605" d="M84 696.5q0 307.5 208 511t511 203.5t511 -203.5t208 -511t-208 -511t-511 -203.5t-511 203.5t-208 511zM311 696.5q0 -223.5 138.5 -370t353.5 -146.5t353 146.5t138 370t-138 369.5t-353 146t-353.5 -146t-138.5 -369.5zM555 1798h231l103 -311h-160z" />
<glyph unicode="&#xd3;" horiz-adv-x="1605" d="M84 696.5q0 307.5 208 511t511 203.5t511 -203.5t208 -511t-208 -511t-511 -203.5t-511 203.5t-208 511zM311 696.5q0 -223.5 138.5 -370t353.5 -146.5t353 146.5t138 370t-138 369.5t-353 146t-353.5 -146t-138.5 -369.5zM723 1487l102 311h232l-174 -311h-160z" />
<glyph unicode="&#xd4;" horiz-adv-x="1605" d="M84 696.5q0 307.5 208 511t511 203.5t511 -203.5t208 -511t-208 -511t-511 -203.5t-511 203.5t-208 511zM311 696.5q0 -223.5 138.5 -370t353.5 -146.5t353 146.5t138 370t-138 369.5t-353 146t-353.5 -146t-138.5 -369.5zM535 1493l264 311h10l264 -311h-162l-106 88 l-109 -88h-161z" />
<glyph unicode="&#xd5;" horiz-adv-x="1605" d="M84 696.5q0 307.5 208 511t511 203.5t511 -203.5t208 -511t-208 -511t-511 -203.5t-511 203.5t-208 511zM311 696.5q0 -223.5 138.5 -370t353.5 -146.5t353 146.5t138 370t-138 369.5t-353 146t-353.5 -146t-138.5 -369.5zM489 1526q14 96 62.5 152.5t120.5 56.5 q55 0 131 -27t98 -27q25 0 37 13.5t23 46.5l139 -19q-14 -96 -62.5 -152.5t-119.5 -56.5q-55 0 -131 27t-99 27q-25 0 -37 -13.5t-22 -46.5z" />
<glyph unicode="&#xd6;" horiz-adv-x="1605" d="M84 696.5q0 307.5 208 511t511 203.5t511 -203.5t208 -511t-208 -511t-511 -203.5t-511 203.5t-208 511zM311 696.5q0 -223.5 138.5 -370t353.5 -146.5t353 146.5t138 370t-138 369.5t-353 146t-353.5 -146t-138.5 -369.5zM520 1603.5q0 47.5 36 82t81 34.5 q47 0 82 -33.5t35 -83t-35 -83t-82 -33.5q-45 0 -81 34.5t-36 82zM852 1603.5q0 47.5 36 82t81 34.5q47 0 81.5 -33.5t34.5 -83t-34.5 -83t-81.5 -33.5q-45 0 -81 34.5t-36 82z" />
<glyph unicode="&#xd7;" horiz-adv-x="690" d="M63 344l164 164l-164 164l117 116l164 -163l164 163l117 -116l-164 -164l166 -164l-117 -117l-166 164l-164 -164z" />
<glyph unicode="&#xd8;" horiz-adv-x="1605" d="M70 100l159 156q-145 193 -145 440q0 307 208 511t511 204q256 0 452 -154l158 154l123 -121l-160 -155q145 -188 146 -439q0 -307 -208 -510.5t-511 -203.5q-260 0 -453 153l-157 -155zM309 696q0 -164 74 -288l727 706q-129 100 -307 100q-215 0 -354.5 -147.5 t-139.5 -370.5zM498 279q129 -100 305 -101q215 0 354 147.5t139 370.5q0 160 -73 289z" />
<glyph unicode="&#xd9;" horiz-adv-x="1349" d="M143 492v901h219v-889q0 -324 314 -324q311 0 311 324v889h219v-901q0 -246 -147.5 -378t-382.5 -132q-238 0 -385.5 132t-147.5 378zM426 1798h231l103 -311h-160z" />
<glyph unicode="&#xda;" horiz-adv-x="1349" d="M143 492v901h219v-889q0 -324 314 -324q311 0 311 324v889h219v-901q0 -246 -147.5 -378t-382.5 -132q-238 0 -385.5 132t-147.5 378zM594 1487l102 311h232l-174 -311h-160z" />
<glyph unicode="&#xdb;" horiz-adv-x="1349" d="M143 492v901h219v-889q0 -324 314 -324q311 0 311 324v889h219v-901q0 -246 -147.5 -378t-382.5 -132q-238 0 -385.5 132t-147.5 378zM406 1493l264 311h10l264 -311h-162l-106 88l-109 -88h-161z" />
<glyph unicode="&#xdc;" horiz-adv-x="1349" d="M143 492v901h219v-889q0 -324 314 -324q311 0 311 324v889h219v-901q0 -246 -147.5 -378t-382.5 -132q-238 0 -385.5 132t-147.5 378zM391 1603.5q0 47.5 36 82t81 34.5q47 0 82 -33.5t35 -83t-35 -83t-82 -33.5q-45 0 -81 34.5t-36 82zM723 1603.5q0 47.5 36 82t81 34.5 q47 0 81.5 -33.5t34.5 -83t-34.5 -83t-81.5 -33.5q-45 0 -81 34.5t-36 82z" />
<glyph unicode="&#xdd;" horiz-adv-x="1259" d="M41 1393h242l356 -625l350 625h230l-474 -836v-557h-219v555zM559 1487l103 311h231l-174 -311h-160z" />
<glyph unicode="&#xde;" horiz-adv-x="1181" d="M152 0v1393h219v-234h223q242 0 377 -123t135 -327q0 -209 -135 -330t-377 -121h-223v-258h-219zM371 453h215q154 0 223.5 63.5t69.5 192.5q0 131 -71 193.5t-222 62.5h-215v-512z" />
<glyph unicode="&#xdf;" horiz-adv-x="923" d="M82 0v1145q0 158 105.5 241.5t250.5 83.5q156 0 241 -75.5t87 -208.5q0 -59 -33 -158l-133 -403q-18 -55 -18 -80q0 -33 22.5 -52.5t79.5 -39.5q104 -35 154.5 -86.5t50.5 -155.5q0 -100 -62.5 -164.5t-199.5 -64.5q-190 0 -283 102l117 131q68 -68 153 -68q82 0 82 58 q0 8 -2 15t-8 13l-11 12q-5 5 -18.5 10t-23.5 9t-30.5 11.5t-35.5 13.5q-90 35 -133 83t-45 132q0 78 33 180l125 381q20 63 20 113q0 121 -131 120q-150 0 -149 -159v-1139h-205z" />
<glyph unicode="&#xe0;" horiz-adv-x="778" d="M41 215q0 98 77 151.5t197 53.5h183q-2 127 -129 127q-102 0 -168 -76l-125 115q117 133 305 133q152 0 236.5 -79t84.5 -230v-410h-204v63q-70 -82 -197 -81q-115 0 -187.5 58t-72.5 175zM143 1122h232l102 -311h-160zM244 213q0 -68 94 -68q68 0 114 32t46 75v29h-172 q-82 0 -82 -68z" />
<glyph unicode="&#xe1;" horiz-adv-x="778" d="M41 215q0 98 77 151.5t197 53.5h183q-2 127 -129 127q-102 0 -168 -76l-125 115q117 133 305 133q152 0 236.5 -79t84.5 -230v-410h-204v63q-70 -82 -197 -81q-115 0 -187.5 58t-72.5 175zM244 213q0 -68 94 -68q68 0 114 32t46 75v29h-172q-82 0 -82 -68zM311 811 l103 311h231l-174 -311h-160z" />
<glyph unicode="&#xe2;" horiz-adv-x="778" d="M41 215q0 98 77 151.5t197 53.5h183q-2 127 -129 127q-102 0 -168 -76l-125 115q117 133 305 133q152 0 236.5 -79t84.5 -230v-410h-204v63q-70 -82 -197 -81q-115 0 -187.5 58t-72.5 175zM123 817l264 311h10l265 -311h-162l-107 88l-108 -88h-162zM244 213 q0 -68 94 -68q68 0 114 32t46 75v29h-172q-82 0 -82 -68z" />
<glyph unicode="&#xe3;" horiz-adv-x="778" d="M41 215q0 98 77 151.5t197 53.5h183q-2 127 -129 127q-102 0 -168 -76l-125 115q117 133 305 133q152 0 236.5 -79t84.5 -230v-410h-204v63q-70 -82 -197 -81q-115 0 -187.5 58t-72.5 175zM117 856q14 94 61 149.5t115 55.5q53 0 107.5 -28.5t72.5 -28.5q39 0 53 55 l140 -19q-14 -94 -61.5 -149t-115.5 -55q-53 0 -107 28.5t-73 28.5q-39 0 -53 -55zM244 213q0 -68 94 -68q68 0 114 32t46 75v29h-172q-82 0 -82 -68z" />
<glyph unicode="&#xe4;" horiz-adv-x="778" d="M41 215q0 98 77 151.5t197 53.5h183q-2 127 -129 127q-102 0 -168 -76l-125 115q117 133 305 133q152 0 236.5 -79t84.5 -230v-410h-204v63q-70 -82 -197 -81q-115 0 -187.5 58t-72.5 175zM109 956.5q0 47.5 35.5 82t80.5 34.5q47 0 82 -33.5t35 -83t-35 -83t-82 -33.5 q-45 0 -80.5 34.5t-35.5 82zM244 213q0 -68 94 -68q68 0 114 32t46 75v29h-172q-82 0 -82 -68zM440 956.5q0 47.5 36 82t81 34.5q47 0 82 -33.5t35 -83t-35 -83t-82 -33.5q-45 0 -81 34.5t-36 82z" />
<glyph unicode="&#xe5;" horiz-adv-x="778" d="M41 215q0 98 77 151.5t197 53.5h183q-2 127 -129 127q-102 0 -168 -76l-125 115q117 133 305 133q152 0 236.5 -79t84.5 -230v-410h-204v63q-70 -82 -197 -81q-115 0 -187.5 58t-72.5 175zM197 983q0 76 58 130t136 54t136.5 -54t58.5 -130q0 -74 -58.5 -128t-136.5 -54 t-136 54t-58 128zM244 213q0 -68 94 -68q68 0 114 32t46 75v29h-172q-82 0 -82 -68zM324 983q0 -33 18 -52.5t49 -19.5t49.5 19.5t18.5 52.5t-19.5 53.5t-48.5 20.5t-48 -20.5t-19 -53.5z" />
<glyph unicode="&#xe6;" horiz-adv-x="1290" d="M41 215q0 98 77 150.5t197 52.5h187q-2 129 -133 129q-102 0 -168 -76l-125 115q117 133 305 133q160 0 229 -117q94 117 260 117q180 0 280.5 -126t88.5 -314h-534q37 -125 182 -125q102 0 182 67l123 -123q-111 -117 -301 -116q-199 0 -293 133q-90 -133 -297 -133 q-115 0 -187.5 58t-72.5 175zM244 213q0 -68 94 -68q70 0 117 31t47 76v27h-176q-82 0 -82 -66zM705 418h319q-25 129 -154 129q-132 0 -165 -129z" />
<glyph unicode="&#xe7;" horiz-adv-x="761" d="M53 350q0 160 105.5 264.5t263.5 104.5q186 0 293 -123l-135 -125q-61 70 -152 70q-76 0 -120 -54.5t-44 -136.5t45 -136t123 -54q90 0 160 73l135 -122q-104 -121 -278 -129v-70q63 -10 101 -51t38 -113q0 -70 -52.5 -114t-121.5 -44q-133 0 -191 99l105 63 q20 -43 67 -43q57 0 58 53q0 55 -64 56h-57v174q-125 29 -202 127t-77 231z" />
<glyph unicode="&#xe8;" horiz-adv-x="851" d="M53 350q0 160 108.5 264.5t270.5 104.5q180 0 280.5 -125t88.5 -313h-535q33 -127 183 -127q102 0 182 67l123 -123q-111 -117 -301 -116q-180 0 -290 103t-110 265zM184 1122h232l102 -311h-160zM268 424h318q-25 123 -154 123q-133 0 -164 -123z" />
<glyph unicode="&#xe9;" horiz-adv-x="851" d="M53 350q0 160 108.5 264.5t270.5 104.5q180 0 280.5 -125t88.5 -313h-535q33 -127 183 -127q102 0 182 67l123 -123q-111 -117 -301 -116q-180 0 -290 103t-110 265zM268 424h318q-25 123 -154 123q-133 0 -164 -123zM352 811l103 311h231l-174 -311h-160z" />
<glyph unicode="&#xea;" horiz-adv-x="851" d="M53 350q0 160 108.5 264.5t270.5 104.5q180 0 280.5 -125t88.5 -313h-535q33 -127 183 -127q102 0 182 67l123 -123q-111 -117 -301 -116q-180 0 -290 103t-110 265zM164 817l264 311h10l264 -311h-161l-107 88l-108 -88h-162zM268 424h318q-25 123 -154 123 q-133 0 -164 -123z" />
<glyph unicode="&#xeb;" horiz-adv-x="851" d="M53 350q0 160 108.5 264.5t270.5 104.5q180 0 280.5 -125t88.5 -313h-535q33 -127 183 -127q102 0 182 67l123 -123q-111 -117 -301 -116q-180 0 -290 103t-110 265zM150 956.5q0 47.5 35.5 82t80.5 34.5q47 0 82 -33.5t35 -83t-35 -83t-82 -33.5q-45 0 -80.5 34.5 t-35.5 82zM268 424h318q-25 123 -154 123q-133 0 -164 -123zM481 956.5q0 47.5 36 82t81 34.5q47 0 82 -33.5t35 -83t-35 -83t-82 -33.5q-45 0 -81 34.5t-36 82z" />
<glyph unicode="&#xec;" horiz-adv-x="376" d="M-59 1122h231l102 -311h-159zM86 0v700h205v-700h-205z" />
<glyph unicode="&#xed;" horiz-adv-x="376" d="M86 0v700h205v-700h-205zM109 811l102 311h231l-174 -311h-159z" />
<glyph unicode="&#xee;" horiz-adv-x="376" d="M-80 817l264 311h11l264 -311h-162l-107 88l-108 -88h-162zM86 0v700h205v-700h-205z" />
<glyph unicode="&#xef;" horiz-adv-x="376" d="M-94 956.5q0 47.5 35.5 82t81.5 34.5q47 0 81.5 -33.5t34.5 -83t-34.5 -83t-81.5 -33.5q-45 0 -81 34.5t-36 82zM86 0v700h205v-700h-205zM238 956.5q0 47.5 35.5 82t80.5 34.5q47 0 82 -33.5t35 -83t-35 -83t-82 -33.5q-45 0 -80.5 34.5t-35.5 82z" />
<glyph unicode="&#xf0;" horiz-adv-x="872" d="M53 350q0 160 100.5 264.5t239.5 104.5q137 0 203 -90q-47 242 -190 430l-103 -86l-94 100l106 88q-59 63 -155 142l96 133q117 -76 199 -158l102 86l94 -100l-104 -86q272 -330 272 -736q0 -227 -106.5 -343.5t-276.5 -116.5q-162 0 -272.5 105t-110.5 263zM264 350 q0 -86 47 -140t125 -54t125 54t47 140t-47 140.5t-125 54.5t-125 -54.5t-47 -140.5z" />
<glyph unicode="&#xf1;" horiz-adv-x="839" d="M82 0v700h205v-90q66 109 219 109q119 0 191.5 -79t72.5 -216v-424h-205v410q0 125 -125 125q-154 0 -153 -158v-377h-205zM152 856q14 94 61 149.5t115 55.5q53 0 107 -28.5t73 -28.5q39 0 53 55l139 -19q-14 -94 -61 -149t-115 -55q-53 0 -107.5 28.5t-72.5 28.5 q-39 0 -53 -55z" />
<glyph unicode="&#xf2;" horiz-adv-x="872" d="M53 350.5q0 157.5 110.5 263t272.5 105.5t272.5 -105.5t110.5 -263t-110.5 -263t-272.5 -105.5t-272.5 105.5t-110.5 263zM188 1122h232l102 -311h-160zM264 350q0 -86 47 -140t125 -54t125 54t47 140t-47 140.5t-125 54.5t-125 -54.5t-47 -140.5z" />
<glyph unicode="&#xf3;" horiz-adv-x="872" d="M53 350.5q0 157.5 110.5 263t272.5 105.5t272.5 -105.5t110.5 -263t-110.5 -263t-272.5 -105.5t-272.5 105.5t-110.5 263zM264 350q0 -86 47 -140t125 -54t125 54t47 140t-47 140.5t-125 54.5t-125 -54.5t-47 -140.5zM356 811l103 311h231l-174 -311h-160z" />
<glyph unicode="&#xf4;" horiz-adv-x="872" d="M53 350.5q0 157.5 110.5 263t272.5 105.5t272.5 -105.5t110.5 -263t-110.5 -263t-272.5 -105.5t-272.5 105.5t-110.5 263zM168 817l264 311h10l265 -311h-162l-107 88l-108 -88h-162zM264 350q0 -86 47 -140t125 -54t125 54t47 140t-47 140.5t-125 54.5t-125 -54.5 t-47 -140.5z" />
<glyph unicode="&#xf5;" horiz-adv-x="872" d="M53 350.5q0 157.5 110.5 263t272.5 105.5t272.5 -105.5t110.5 -263t-110.5 -263t-272.5 -105.5t-272.5 105.5t-110.5 263zM162 856q14 94 61 149.5t115 55.5q53 0 107.5 -28.5t72.5 -28.5q39 0 53 55l140 -19q-14 -94 -61.5 -149t-114.5 -55q-53 0 -107.5 28.5 t-73.5 28.5q-39 0 -53 -55zM264 350q0 -86 47 -140t125 -54t125 54t47 140t-47 140.5t-125 54.5t-125 -54.5t-47 -140.5z" />
<glyph unicode="&#xf6;" horiz-adv-x="872" d="M53 350.5q0 157.5 110.5 263t272.5 105.5t272.5 -105.5t110.5 -263t-110.5 -263t-272.5 -105.5t-272.5 105.5t-110.5 263zM154 956.5q0 47.5 35.5 82t80.5 34.5q47 0 82 -33.5t35 -83t-35 -83t-82 -33.5q-45 0 -80.5 34.5t-35.5 82zM264 350q0 -86 47 -140t125 -54 t125 54t47 140t-47 140.5t-125 54.5t-125 -54.5t-47 -140.5zM485 956.5q0 47.5 36 82t81 34.5q47 0 82 -33.5t35 -83t-35 -83t-82 -33.5q-45 0 -81 34.5t-36 82z" />
<glyph unicode="&#xf7;" horiz-adv-x="780" d="M74 438v185h633v-185h-633zM254 219.5q0 59.5 41 98t96 38.5t96 -38.5t41 -98t-41 -98.5t-96 -39t-96 39t-41 98.5zM254 841.5q0 59.5 41 98.5t96 39t96 -39t41 -98.5t-41 -98t-96 -38.5t-96 38.5t-41 98z" />
<glyph unicode="&#xf8;" horiz-adv-x="872" d="M12 74l94 82q-53 90 -53 194q0 158 110.5 263.5t272.5 105.5q135 0 240 -78l98 86l86 -98l-96 -82q55 -90 55 -197q0 -158 -110.5 -263t-272.5 -105q-135 0 -239 77l-99 -84zM250 350q0 -37 6 -67l287 245q-39 27 -107 27q-86 0 -136 -57.5t-50 -147.5zM328 172 q47 -27 108 -27q86 0 136.5 57.5t50.5 147.5q0 35 -7 70z" />
<glyph unicode="&#xf9;" horiz-adv-x="845" d="M76 276v424h205v-409q0 -125 125 -125q154 0 153 158v376h205v-700h-205v90q-66 -109 -219 -108q-119 0 -191.5 78.5t-72.5 215.5zM172 1122h231l103 -311h-160z" />
<glyph unicode="&#xfa;" horiz-adv-x="845" d="M76 276v424h205v-409q0 -125 125 -125q154 0 153 158v376h205v-700h-205v90q-66 -109 -219 -108q-119 0 -191.5 78.5t-72.5 215.5zM340 811l102 311h232l-174 -311h-160z" />
<glyph unicode="&#xfb;" horiz-adv-x="845" d="M76 276v424h205v-409q0 -125 125 -125q154 0 153 158v376h205v-700h-205v90q-66 -109 -219 -108q-119 0 -191.5 78.5t-72.5 215.5zM152 817l264 311h10l264 -311h-162l-106 88l-109 -88h-161z" />
<glyph unicode="&#xfc;" horiz-adv-x="845" d="M76 276v424h205v-409q0 -125 125 -125q154 0 153 158v376h205v-700h-205v90q-66 -109 -219 -108q-119 0 -191.5 78.5t-72.5 215.5zM137 956.5q0 47.5 36 82t81 34.5q47 0 82 -33.5t35 -83t-35 -83t-82 -33.5q-45 0 -81 34.5t-36 82zM469 956.5q0 47.5 36 82t81 34.5 q47 0 81.5 -33.5t34.5 -83t-34.5 -83t-81.5 -33.5q-45 0 -81 34.5t-36 82z" />
<glyph unicode="&#xfd;" horiz-adv-x="776" d="M6 700h230l167 -403l164 403h203l-473 -1134h-205l209 497zM322 811l102 311h231l-174 -311h-159z" />
<glyph unicode="&#xfe;" horiz-adv-x="890" d="M86 -434v1888h205v-833q61 98 217 98q137 0 233.5 -105.5t96.5 -263t-96.5 -263t-233.5 -105.5q-156 0 -217 98v-514h-205zM287 350q0 -86 45 -137t122.5 -51t125 51t47.5 137t-47.5 137.5t-125 51.5t-122.5 -51.5t-45 -137.5z" />
<glyph unicode="&#xff;" horiz-adv-x="776" d="M6 700h230l167 -403l164 403h203l-473 -1134h-205l209 497zM119 956.5q0 47.5 35.5 82t81.5 34.5q47 0 81.5 -33.5t34.5 -83t-34.5 -83t-81.5 -33.5q-45 0 -81 34.5t-36 82zM451 956.5q0 47.5 35.5 82t80.5 34.5q47 0 82 -33.5t35 -83t-35 -83t-82 -33.5 q-45 0 -80.5 34.5t-35.5 82z" />
<glyph unicode="&#x152;" horiz-adv-x="1980" d="M84 696.5q0 313.5 197.5 505t535.5 191.5h1030v-195h-667v-399h592v-191h-592v-413h696v-195h-1059q-338 0 -535.5 191.5t-197.5 505zM311 696.5q0 -231.5 129 -366.5t389 -135h132v1003h-132q-260 0 -389 -135t-129 -366.5z" />
<glyph unicode="&#x153;" horiz-adv-x="1411" d="M53 350.5q0 157.5 110.5 263t272.5 105.5q178 0 277 -127q100 127 278 127q180 0 280.5 -126t88.5 -319h-533q37 -121 181 -120q102 0 182 67l123 -123q-111 -117 -301 -116q-197 0 -299 124q-98 -125 -277 -124q-162 0 -272.5 105.5t-110.5 263zM264 350q0 -86 47 -140 t125 -54t125 54t47 140t-47 140.5t-125 54.5t-125 -54.5t-47 -140.5zM825 418h320q-25 129 -154 129q-133 0 -166 -129z" />
<glyph unicode="&#x178;" horiz-adv-x="1259" d="M41 1393h242l356 -625l350 625h230l-474 -836v-557h-219v555zM356 1603.5q0 47.5 36 82t81 34.5q47 0 82 -33.5t35 -83t-35 -83t-82 -33.5q-45 0 -81 34.5t-36 82zM688 1603.5q0 47.5 36 82t81 34.5q47 0 82 -33.5t35 -83t-35 -83t-82 -33.5q-45 0 -81 34.5t-36 82z" />
<glyph unicode="&#x2c6;" horiz-adv-x="1024" d="M242 817l264 311h10l264 -311h-162l-106 88l-109 -88h-161z" />
<glyph unicode="&#x2dc;" horiz-adv-x="1024" d="M238 856q14 94 61 149.5t115 55.5q53 0 107 -28.5t73 -28.5q39 0 53 55l139 -19q-14 -94 -61 -149t-115 -55q-53 0 -107 28.5t-73 28.5q-39 0 -53 -55z" />
<glyph unicode="&#x2000;" horiz-adv-x="921" />
<glyph unicode="&#x2001;" horiz-adv-x="1843" />
<glyph unicode="&#x2002;" horiz-adv-x="921" />
<glyph unicode="&#x2003;" horiz-adv-x="1843" />
<glyph unicode="&#x2004;" horiz-adv-x="614" />
<glyph unicode="&#x2005;" horiz-adv-x="460" />
<glyph unicode="&#x2006;" horiz-adv-x="307" />
<glyph unicode="&#x2007;" horiz-adv-x="307" />
<glyph unicode="&#x2008;" horiz-adv-x="229" />
<glyph unicode="&#x2009;" horiz-adv-x="368" />
<glyph unicode="&#x200a;" horiz-adv-x="102" />
<glyph unicode="&#x2010;" horiz-adv-x="512" d="M68 338v186h376v-186h-376z" />
<glyph unicode="&#x2011;" horiz-adv-x="512" d="M68 338v186h376v-186h-376z" />
<glyph unicode="&#x2012;" horiz-adv-x="512" d="M68 338v186h376v-186h-376z" />
<glyph unicode="&#x2013;" horiz-adv-x="819" d="M68 338v186h684v-186h-684z" />
<glyph unicode="&#x2014;" horiz-adv-x="1310" d="M68 338v186h1175v-186h-1175z" />
<glyph unicode="&#x2018;" horiz-adv-x="436" d="M80 1075q0 66 47 144l109 174h104l-70 -189q86 -41 86 -127q0 -59 -41 -98t-98 -39q-55 0 -96 39t-41 96z" />
<glyph unicode="&#x2019;" horiz-adv-x="436" d="M80 1274q0 59 41 98t98 39q55 0 96 -39t41 -96q0 -66 -47 -143l-108 -175h-105l70 189q-86 41 -86 127z" />
<glyph unicode="&#x201a;" horiz-adv-x="436" d="M80 127q0 59 41 98t98 39q55 0 96 -39t41 -96q0 -66 -47 -143l-108 -174h-105l70 188q-86 41 -86 127z" />
<glyph unicode="&#x201c;" horiz-adv-x="798" d="M80 1075q0 66 47 144l109 174h104l-70 -189q86 -41 86 -127q0 -59 -41 -98t-98 -39q-55 0 -96 39t-41 96zM442 1075q0 66 47 144l109 174h104l-69 -189q86 -41 86 -127q0 -59 -41 -98t-98 -39q-55 0 -96.5 39t-41.5 96z" />
<glyph unicode="&#x201d;" horiz-adv-x="798" d="M80 1274q0 59 41 98t98 39q55 0 96 -39t41 -96q0 -66 -47 -143l-108 -175h-105l70 189q-86 41 -86 127zM442 1274q0 59 41 98t99 39q55 0 96 -39t41 -96q0 -66 -47 -143l-109 -175h-104l69 189q-86 41 -86 127z" />
<glyph unicode="&#x201e;" horiz-adv-x="798" d="M80 127q0 59 41 98t98 39q55 0 96 -39t41 -96q0 -66 -47 -143l-108 -174h-105l70 188q-86 41 -86 127zM442 127q0 59 41 98t99 39q55 0 96 -39t41 -96q0 -66 -47 -143l-109 -174h-104l69 188q-86 41 -86 127z" />
<glyph unicode="&#x2022;" horiz-adv-x="528" d="M68 532q0 84 58 140.5t138 56.5t138.5 -56.5t58.5 -140.5q0 -82 -58.5 -139t-138.5 -57t-138 57t-58 139z" />
<glyph unicode="&#x2026;" horiz-adv-x="1257" d="M74 131.5q0 61.5 43 102t100 40.5t100 -40.5t43 -102t-43 -102.5t-100 -41t-100 41t-43 102.5zM485 131.5q0 61.5 43 102t100.5 40.5t100.5 -40.5t43 -102t-43 -102.5t-100.5 -41t-100.5 41t-43 102.5zM897 131.5q0 61.5 43 102t100.5 40.5t100.5 -40.5t43 -102 t-43 -102.5t-100.5 -41t-100.5 41t-43 102.5z" />
<glyph unicode="&#x202f;" horiz-adv-x="368" />
<glyph unicode="&#x2039;" horiz-adv-x="487" d="M57 348v8l158 279h215l-158 -283l158 -286h-215z" />
<glyph unicode="&#x203a;" horiz-adv-x="487" d="M57 66l158 282l-158 287h215l158 -283v-8l-158 -278h-215z" />
<glyph unicode="&#x205f;" horiz-adv-x="460" />
<glyph unicode="&#x20ac;" horiz-adv-x="1216" d="M43 342v152h129q-2 16 -2 49q0 35 2 53h-129v152h164q63 160 207.5 257t318.5 97q276 0 412 -199l-148 -121q-94 135 -264 136q-203 0 -297 -170h367v-152h-414q-2 -16 -2 -53q0 -33 2 -49h414v-152h-369q92 -176 299 -176q190 0 289 145l156 -114q-143 -215 -445 -215 q-176 0 -320.5 99t-205.5 261h-164z" />
<glyph unicode="&#x2122;" horiz-adv-x="1091" d="M53 1278v115h389v-115h-123v-352h-139v352h-127zM520 926v473h12l230 -228l227 228h12v-473h-137v192l-102 -112l-103 112v-192h-139z" />
<glyph unicode="&#xe000;" horiz-adv-x="700" d="M0 700h700v-700h-700v700z" />
<glyph unicode="&#xfb01;" horiz-adv-x="827" d="M39 530v170h82v508q0 129 62.5 195.5t172.5 66.5q129 0 199 -79l-115 -129q-23 29 -63 28q-51 0 -51 -80v-510h415v-700h-204v530h-211v-530h-205v530h-82zM510 1022q0 53 39 91t90 38q53 0 91 -37t38 -92t-38 -92t-91 -37q-51 0 -90 38t-39 91z" />
<glyph unicode="&#xfb02;" horiz-adv-x="827" d="M39 530v170h82v510q0 127 60.5 193.5t174.5 66.5q88 0 140 -38l-58 -158q-25 16 -57 16q-55 0 -55 -78v-512h129v-170h-129v-530h-205v530h-82zM537 0v1454h204v-1454h-204z" />
<glyph unicode="&#xfb03;" horiz-adv-x="1263" d="M39 530v170h82v510q0 129 60.5 194.5t165 65.5t173.5 -49l-86 -151q-25 20 -57 20q-51 0 -51 -78v-512h221v508q0 129 62.5 195.5t172.5 66.5q129 0 199 -79l-115 -129q-23 29 -63 28q-51 0 -51 -80v-510h426v-700h-205v530h-221v-530h-205v530h-221v-530h-205v530h-82z M946 1022q0 53 39 91t90 38q53 0 91 -37t38 -92t-38 -92t-91 -37q-51 0 -90 38t-39 91z" />
<glyph unicode="&#xfb04;" horiz-adv-x="1253" d="M39 530v170h82v510q0 129 60.5 194.5t165 65.5t173.5 -49l-86 -151q-25 20 -57 20q-51 0 -51 -78v-512h221v510q0 127 60.5 193.5t174.5 66.5q88 0 140 -38l-58 -158q-25 16 -57 16q-55 0 -55 -78v-512h129v-170h-129v-530h-205v530h-221v-530h-205v530h-82zM963 0v1454 h204v-1454h-204z" />
</font>
</defs>
</svg>
